<svg width="467" height="432" viewBox="0 0 467 432" fill="none" xmlns="http://www.w3.org/2000/svg">
<path d="M450.869 260.153C437.692 300.091 409.306 343.861 367.531 358.11C304.411 379.645 298.772 431.413 184.212 431.06C166.351 431.007 149.771 429.136 134.474 425.719C126.251 423.883 118.396 421.588 110.922 418.883C43.0583 394.403 5.90129 336.185 0.599295 273.973C-6.38771 192.151 49.2943 150.871 85.5803 126.557C121.866 102.244 163.24 11.8685 275.862 11.3305C293.033 11.2555 310.233 12.9385 326.986 16.7925C365.227 25.5725 404.575 46.7405 428.211 78.9965C429.986 81.4195 431.685 83.9045 433.318 86.4395C465.198 136.041 468.837 205.706 450.869 260.153Z" fill="#D4D6DB"/>
<path opacity="0.7" d="M450.869 260.153C437.692 300.091 409.306 343.861 367.531 358.11C304.411 379.645 298.772 431.413 184.212 431.06C166.351 431.007 149.771 429.136 134.474 425.719C126.251 423.883 118.396 421.588 110.922 418.883C43.0583 394.403 5.90129 336.185 0.599295 273.973C-6.38771 192.151 49.2943 150.871 85.5803 126.557C121.866 102.244 163.24 11.8685 275.862 11.3305C293.033 11.2555 310.233 12.9385 326.986 16.7925C365.227 25.5725 404.575 46.7405 428.211 78.9965C429.986 81.4195 431.685 83.9045 433.318 86.4395C465.198 136.041 468.837 205.706 450.869 260.153Z" fill="#F4F5FC"/>
<path d="M466.23 413.34H4.48718" stroke="#08104F" stroke-miterlimit="10" stroke-linecap="round" stroke-linejoin="round"/>
<path d="M21.7043 350.072C23.8583 351.012 29.1243 350.894 29.1283 350.894C29.1833 350.893 27.9963 347.446 27.8963 347.238C26.7413 344.821 23.0863 340.829 20.1133 341.231C17.9713 341.521 16.7803 343.664 17.2633 345.681C17.7583 347.74 19.8713 349.27 21.7043 350.072Z" fill="#08104F"/>
<path d="M23.5223 365.325C25.7563 365.651 30.4563 364.288 30.8293 364.178C31.5713 366.809 32.5463 369.449 33.6803 372.066C34.3263 373.563 35.0243 375.05 35.7433 376.533C35.3143 375.905 34.9263 375.347 34.8643 375.274C33.1103 373.247 28.5323 370.363 25.7713 371.536C23.7813 372.381 23.1993 374.763 24.1973 376.58C25.2173 378.436 27.6603 379.354 29.6403 379.642C31.6503 379.935 35.6803 378.853 36.7433 378.553C37.0243 379.119 37.2993 379.687 37.5833 380.252C38.9443 382.962 40.3143 385.66 41.5763 388.348C42.0213 389.295 42.4253 390.244 42.8333 391.192C42.4523 390.634 42.1263 390.168 42.0693 390.102C40.3163 388.076 35.7383 385.191 32.9763 386.365C30.9863 387.21 30.4033 389.592 31.4023 391.409C32.4233 393.265 34.8653 394.183 36.8453 394.472C38.7633 394.752 42.4923 393.787 43.7563 393.436C44.1443 394.42 44.5353 395.404 44.8663 396.374C45.0783 397.042 45.3283 397.67 45.5023 398.352C45.6903 399.024 45.8753 399.689 46.0593 400.349C46.3673 401.631 46.6923 402.952 46.9603 404.21C47.1543 405.084 47.3223 405.92 47.4943 406.762C47.0623 405.814 46.1763 403.976 46.0843 403.831C44.6593 401.563 40.5703 398.018 37.6623 398.759C35.5673 399.293 34.6313 401.559 35.3433 403.507C36.0703 405.496 38.3453 406.774 40.2593 407.359C42.3663 408.003 47.0313 407.415 47.6133 407.337C47.8933 408.731 48.1513 410.089 48.3753 411.375C48.4953 412.055 48.5993 412.695 48.7053 413.337H50.5603C50.4233 412.596 50.2803 411.839 50.1223 411.048C49.8443 409.632 49.5193 408.124 49.1703 406.578C49.5213 406.439 51.5103 405.634 53.2733 404.649C54.8093 406.312 58.7443 408.258 59.2533 408.506C58.7183 409.823 58.1843 411.098 57.6613 412.294C57.5043 412.656 57.3523 412.993 57.1983 413.337H59.1523C59.2013 413.219 59.2493 413.107 59.2983 412.985C59.8473 411.65 60.4083 410.212 60.9703 408.731C61.5343 408.849 66.1523 409.787 68.3043 409.301C70.2563 408.86 72.6203 407.755 73.4943 405.826C74.3493 403.937 73.5843 401.607 71.5343 400.919C68.6903 399.963 64.3493 403.194 62.7583 405.35C62.6643 405.477 61.8003 406.971 61.2713 407.922C61.4973 407.316 61.7233 406.729 61.9493 406.102C62.4033 404.865 62.8203 403.617 63.2733 402.276C63.4693 401.621 63.6673 400.958 63.8673 400.29C64.0793 399.631 64.2203 398.908 64.4013 398.212C64.7883 396.588 65.1013 394.923 65.3793 393.24C66.4633 393.634 70.3343 394.981 72.3403 394.84C74.3363 394.7 76.8403 393.967 77.9963 392.192C79.1283 390.454 78.7243 388.035 76.8033 387.044C74.1363 385.669 69.3553 388.204 67.4573 390.094C67.3393 390.211 66.1283 391.721 65.4803 392.563C65.6393 391.55 65.8033 390.539 65.9313 389.508C66.3003 386.533 66.5813 383.51 66.8753 380.496C66.9643 379.573 67.0653 378.654 67.1623 377.733C67.5463 377.878 72.1133 379.578 74.3593 379.42C76.3553 379.28 78.8593 378.547 80.0153 376.771C81.1473 375.034 80.7433 372.614 78.8223 371.624C76.1553 370.249 71.3753 372.784 69.4763 374.674C69.3333 374.816 67.5953 376.991 67.1803 377.565C67.3943 375.538 67.6263 373.52 67.9363 371.54C68.3593 368.808 68.9263 366.15 69.6653 363.616C69.8443 363.684 74.6023 365.479 76.9023 365.318C78.8983 365.178 81.4033 364.444 82.5583 362.669C83.6903 360.931 83.2863 358.512 81.3653 357.522C78.6983 356.147 73.9183 358.682 72.0193 360.572C71.8703 360.72 70.0013 363.061 69.6923 363.509C69.7373 363.358 69.7663 363.198 69.8123 363.048C70.6363 360.353 71.7723 357.845 72.9513 355.55C73.6333 354.215 74.3613 352.977 75.0953 351.788C75.9473 352.213 79.8623 354.114 81.9483 354.198C83.9483 354.278 86.5173 353.824 87.8613 352.187C89.1773 350.584 89.0413 348.135 87.2413 346.94C84.7413 345.28 79.7113 347.275 77.6163 348.945C77.5023 349.036 76.4463 350.087 75.6883 350.864C76.0273 350.332 76.3683 349.778 76.7033 349.275C77.9583 347.385 79.2243 345.731 80.3573 344.276C81.0083 343.454 81.6123 342.723 82.1863 342.045C83.2393 342.027 87.4853 341.898 89.3413 341.027C91.1523 340.176 93.2243 338.59 93.6623 336.517C94.0913 334.488 92.8423 332.377 90.6933 332.146C87.7103 331.824 84.1653 335.913 83.0753 338.36C82.9813 338.572 81.8883 342.049 81.9433 342.048C81.9433 342.048 81.9943 342.048 82.0073 342.047C81.4423 342.688 80.8453 343.382 80.2063 344.153C79.0393 345.587 77.7333 347.217 76.4333 349.087C75.1283 350.953 73.7623 353.016 72.5203 355.32C71.2723 357.627 70.0773 360.118 69.1783 362.844C69.1683 362.875 69.1613 362.908 69.1513 362.939C69.1673 362.06 69.1283 359.601 69.1033 359.413C68.7583 356.756 66.5323 351.824 63.5813 351.279C61.4563 350.886 59.6553 352.551 59.4863 354.619C59.3133 356.73 60.8443 358.843 62.3363 360.176C64.0193 361.68 68.6913 363.135 69.0633 363.25C68.2303 365.853 67.5873 368.593 67.0893 371.4C66.8033 373.005 66.5643 374.631 66.3463 376.264C66.3353 375.504 66.3203 374.824 66.3073 374.729C65.9633 372.072 63.7363 367.141 60.7853 366.595C58.6593 366.202 56.8593 367.867 56.6903 369.934C56.5173 372.045 58.0483 374.158 59.5403 375.491C61.0543 376.844 65.0133 378.165 66.0643 378.501C65.9873 379.128 65.9033 379.754 65.8283 380.382C65.4683 383.393 65.1223 386.399 64.6923 389.338C64.5413 390.374 64.3543 391.388 64.1713 392.403C64.1603 391.728 64.1463 391.159 64.1353 391.073C63.7903 388.415 61.5643 383.484 58.6143 382.939C56.4883 382.547 54.6873 384.211 54.5183 386.279C54.3453 388.389 55.8763 390.503 57.3693 391.836C58.8143 393.127 62.4573 394.38 63.7053 394.784C63.4863 395.818 63.2693 396.855 63.0103 397.847C62.8183 398.52 62.6803 399.182 62.4503 399.848C62.2353 400.511 62.0233 401.17 61.8133 401.82C61.3623 403.059 60.9053 404.34 60.4353 405.537C60.1143 406.373 59.7933 407.163 59.4733 407.959C59.6353 406.93 59.9103 404.909 59.9143 404.737C59.9553 402.958 59.3233 400.064 58.0653 398.03C58.0733 397.767 58.0583 397.505 58.0163 397.245C57.6873 395.197 55.7633 393.676 53.6743 394.233C50.7753 395.005 48.9363 400.094 48.7993 402.77C48.7913 402.928 48.8943 404.65 48.9773 405.736C48.8313 405.105 48.6973 404.491 48.5383 403.844C48.2343 402.562 47.8923 401.291 47.5313 399.922C47.3333 399.267 47.1333 398.606 46.9313 397.938C46.7453 397.272 46.4633 396.591 46.2303 395.91C45.6563 394.342 44.9993 392.781 44.3023 391.223C45.4253 390.954 49.3963 389.942 50.9913 388.718C52.5793 387.5 54.2623 385.506 54.2473 383.389C54.2323 381.315 52.5623 379.52 50.4123 379.753C47.4293 380.077 44.8403 384.829 44.2993 387.453C44.2653 387.617 44.0893 389.543 44.0123 390.603C43.5863 389.67 43.1653 388.736 42.7033 387.806C41.3703 385.121 39.9383 382.445 38.5193 379.769C38.0843 378.949 37.6613 378.128 37.2343 377.307C37.6353 377.215 42.3813 376.114 44.1683 374.743C45.7553 373.525 47.4393 371.532 47.4243 369.414C47.4093 367.34 45.7383 365.545 43.5893 365.779C40.6063 366.103 38.0173 370.855 37.4763 373.479C37.4353 373.677 37.1853 376.449 37.1563 377.157C36.2173 375.349 35.2973 373.538 34.4633 371.715C33.3093 369.202 32.3163 366.674 31.5343 364.152C31.7213 364.11 36.6803 362.982 38.5103 361.579C40.0983 360.361 41.7823 358.368 41.7663 356.25C41.7513 354.176 40.0803 352.381 37.9313 352.615C34.9483 352.939 32.3603 357.691 31.8183 360.315C31.7753 360.521 31.5083 363.504 31.4983 364.048C31.4523 363.898 31.3873 363.748 31.3433 363.598C30.5443 360.895 30.1083 358.177 29.8253 355.612C29.6573 354.122 29.5813 352.689 29.5383 351.292C30.4833 351.176 34.7973 350.602 36.5833 349.521C38.2953 348.484 40.1883 346.688 40.4053 344.582C40.6183 342.519 39.1543 340.551 36.9933 340.547C33.9923 340.541 30.8983 344.98 30.0713 347.529C30.0263 347.668 29.7253 349.127 29.5213 350.193C29.5113 349.562 29.4893 348.912 29.4923 348.308C29.4963 346.039 29.6393 343.961 29.7823 342.123C29.8713 341.078 29.9733 340.135 30.0773 339.253C30.9453 338.656 34.4153 336.206 35.4823 334.455C36.5243 332.746 37.3763 330.281 36.5983 328.311C35.8363 326.382 33.6303 325.31 31.7113 326.302C29.0453 327.68 28.3443 333.046 28.7853 335.688C28.8243 335.916 29.8303 339.419 29.8763 339.389C29.8763 339.389 29.9183 339.36 29.9283 339.353C29.8103 340.199 29.6953 341.108 29.5883 342.103C29.4053 343.942 29.2163 346.022 29.1633 348.3C29.1043 350.576 29.1033 353.051 29.3383 355.657C29.5703 358.269 29.9473 361.006 30.7013 363.776C30.7093 363.807 30.7233 363.839 30.7313 363.87C30.2593 363.128 28.8703 361.099 28.7453 360.955C26.9923 358.929 22.4143 356.044 19.6523 357.217C17.6633 358.062 17.0793 360.444 18.0793 362.262C19.1003 364.119 21.5423 365.036 23.5223 365.325Z" fill="#08104F"/>
<path d="M74.9743 351.229C75.0213 351.258 75.9323 347.729 75.9643 347.5C76.3333 344.846 75.4873 339.501 72.7863 338.196C70.8403 337.256 68.6643 338.387 67.9553 340.336C67.2313 342.326 68.1493 344.768 69.2373 346.448C70.5123 348.42 74.9703 351.226 74.9743 351.229Z" fill="#08104F"/>
<path d="M163.737 384.134C164.731 384.568 167.162 384.513 167.164 384.513C167.189 384.512 166.641 382.922 166.595 382.825C166.062 381.709 164.375 379.867 163.002 380.052C162.013 380.186 161.464 381.175 161.687 382.106C161.915 383.058 162.89 383.765 163.737 384.134Z" fill="#08104F"/>
<path d="M164.576 391.175C165.607 391.325 167.777 390.696 167.949 390.645C168.292 391.859 168.742 393.078 169.265 394.286C169.563 394.977 169.885 395.664 170.217 396.348C170.019 396.058 169.84 395.8 169.811 395.767C169.002 394.832 166.888 393.5 165.614 394.042C164.695 394.432 164.427 395.531 164.888 396.37C165.359 397.227 166.487 397.65 167.4 397.784C168.327 397.919 170.188 397.42 170.679 397.281C170.809 397.542 170.936 397.805 171.067 398.065C171.695 399.316 172.327 400.561 172.91 401.802C173.116 402.239 173.302 402.677 173.49 403.115C173.314 402.858 173.163 402.642 173.137 402.612C172.328 401.677 170.215 400.345 168.94 400.887C168.021 401.277 167.752 402.376 168.214 403.215C168.685 404.072 169.812 404.496 170.726 404.629C171.611 404.758 173.332 404.313 173.916 404.151C174.095 404.605 174.275 405.059 174.428 405.507C174.526 405.815 174.641 406.105 174.722 406.42C174.809 406.73 174.894 407.037 174.979 407.342C175.121 407.933 175.271 408.543 175.395 409.124C175.484 409.527 175.562 409.913 175.641 410.302C175.441 409.864 175.033 409.016 174.99 408.949C174.332 407.902 172.445 406.266 171.103 406.608C170.136 406.855 169.704 407.901 170.033 408.8C170.369 409.718 171.419 410.308 172.302 410.578C173.275 410.875 175.428 410.604 175.697 410.568C175.826 411.211 175.945 411.838 176.049 412.432C176.104 412.746 176.152 413.041 176.201 413.338H177.057C176.994 412.996 176.928 412.647 176.855 412.281C176.727 411.627 176.576 410.931 176.415 410.218C176.577 410.154 177.495 409.782 178.309 409.327C179.018 410.095 180.834 410.993 181.069 411.107C180.822 411.715 180.576 412.304 180.334 412.856C180.261 413.023 180.191 413.179 180.12 413.338H181.022C181.045 413.284 181.067 413.232 181.09 413.176C181.344 412.56 181.602 411.896 181.862 411.212C182.122 411.267 184.254 411.699 185.247 411.475C186.148 411.271 187.239 410.761 187.643 409.871C188.038 408.999 187.684 407.924 186.738 407.606C185.425 407.165 183.421 408.656 182.687 409.651C182.644 409.71 182.245 410.399 182.001 410.838C182.105 410.558 182.21 410.287 182.314 409.998C182.524 409.427 182.716 408.851 182.925 408.232C183.015 407.929 183.107 407.624 183.199 407.315C183.297 407.011 183.362 406.677 183.446 406.356C183.625 405.606 183.769 404.838 183.897 404.061C184.397 404.243 186.184 404.865 187.11 404.799C188.031 404.734 189.187 404.396 189.721 403.576C190.244 402.774 190.057 401.657 189.17 401.2C187.939 400.565 185.732 401.736 184.856 402.608C184.801 402.662 184.243 403.359 183.943 403.748C184.017 403.28 184.092 402.814 184.151 402.338C184.321 400.965 184.451 399.57 184.587 398.178C184.628 397.752 184.675 397.328 184.719 396.903C184.896 396.97 187.004 397.755 188.041 397.682C188.962 397.617 190.118 397.279 190.652 396.459C191.175 395.657 190.988 394.54 190.101 394.083C188.87 393.448 186.664 394.618 185.787 395.491C185.721 395.557 184.919 396.56 184.727 396.826C184.826 395.89 184.933 394.959 185.076 394.045C185.271 392.784 185.533 391.557 185.874 390.387C185.956 390.418 188.153 391.247 189.215 391.173C190.136 391.108 191.292 390.77 191.826 389.95C192.348 389.148 192.162 388.031 191.275 387.574C190.044 386.939 187.838 388.11 186.961 388.982C186.892 389.051 186.03 390.131 185.887 390.338C185.908 390.269 185.921 390.194 185.942 390.125C186.322 388.881 186.847 387.724 187.391 386.664C187.706 386.048 188.042 385.476 188.381 384.927C188.774 385.123 190.581 386.001 191.544 386.039C192.467 386.076 193.653 385.866 194.273 385.111C194.88 384.371 194.818 383.241 193.987 382.689C192.833 381.923 190.511 382.844 189.544 383.614C189.491 383.656 189.004 384.141 188.654 384.5C188.811 384.255 188.968 383.999 189.123 383.767C189.702 382.895 190.287 382.131 190.81 381.459C191.11 381.079 191.389 380.742 191.654 380.429C192.14 380.421 194.1 380.361 194.957 379.959C195.793 379.566 196.749 378.834 196.951 377.877C197.149 376.94 196.573 375.966 195.581 375.859C194.204 375.711 192.568 377.598 192.065 378.727C192.022 378.825 191.517 380.43 191.543 380.43C191.543 380.43 191.567 380.43 191.572 380.43C191.311 380.726 191.035 381.046 190.741 381.402C190.202 382.064 189.6 382.816 188.999 383.679C188.397 384.54 187.766 385.493 187.193 386.556C186.617 387.621 186.065 388.771 185.65 390.029C185.645 390.043 185.642 390.059 185.637 390.073C185.644 389.667 185.626 388.532 185.615 388.445C185.456 387.219 184.428 384.942 183.066 384.69C182.085 384.509 181.254 385.277 181.176 386.232C181.096 387.207 181.803 388.182 182.492 388.797C183.269 389.491 185.426 390.163 185.597 390.216C185.212 391.418 184.916 392.682 184.686 393.978C184.554 394.719 184.444 395.469 184.343 396.223C184.338 395.872 184.331 395.558 184.325 395.514C184.166 394.287 183.138 392.011 181.776 391.759C180.795 391.577 179.964 392.346 179.886 393.3C179.806 394.274 180.513 395.25 181.201 395.865C181.9 396.489 183.727 397.099 184.213 397.254C184.177 397.543 184.139 397.832 184.104 398.122C183.938 399.512 183.778 400.899 183.58 402.256C183.51 402.734 183.424 403.202 183.34 403.671C183.335 403.36 183.328 403.097 183.323 403.057C183.164 401.83 182.136 399.554 180.774 399.302C179.793 399.121 178.961 399.889 178.883 400.844C178.803 401.818 179.51 402.794 180.199 403.409C180.866 404.005 182.547 404.583 183.124 404.77C183.023 405.248 182.923 405.726 182.803 406.184C182.714 406.495 182.651 406.8 182.544 407.108C182.445 407.414 182.347 407.718 182.25 408.018C182.042 408.59 181.831 409.181 181.614 409.734C181.466 410.12 181.318 410.484 181.17 410.852C181.245 410.377 181.372 409.444 181.374 409.365C181.393 408.544 181.101 407.208 180.52 406.269C180.524 406.148 180.517 406.027 180.497 405.907C180.345 404.962 179.457 404.26 178.493 404.517C177.155 404.873 176.306 407.223 176.243 408.457C176.239 408.53 176.287 409.325 176.325 409.826C176.257 409.535 176.196 409.251 176.123 408.953C175.983 408.361 175.825 407.775 175.658 407.143C175.567 406.841 175.474 406.536 175.381 406.227C175.295 405.92 175.165 405.605 175.058 405.291C174.793 404.567 174.49 403.847 174.168 403.128C174.686 403.004 176.519 402.537 177.255 401.972C177.988 401.41 178.765 400.49 178.758 399.512C178.751 398.554 177.98 397.726 176.988 397.834C175.611 397.984 174.416 400.177 174.166 401.388C174.151 401.464 174.069 402.353 174.033 402.842C173.836 402.411 173.642 401.98 173.429 401.551C172.814 400.311 172.152 399.076 171.498 397.841C171.297 397.463 171.102 397.084 170.905 396.705C171.09 396.663 173.281 396.154 174.106 395.522C174.839 394.96 175.616 394.04 175.609 393.062C175.602 392.105 174.831 391.276 173.839 391.384C172.462 391.533 171.267 393.727 171.017 394.938C170.998 395.029 170.883 396.309 170.869 396.636C170.435 395.801 170.011 394.965 169.626 394.124C169.093 392.964 168.635 391.797 168.274 390.633C168.36 390.613 170.649 390.093 171.494 389.445C172.227 388.883 173.004 387.963 172.997 386.985C172.99 386.028 172.219 385.199 171.227 385.307C169.85 385.457 168.655 387.65 168.405 388.861C168.385 388.956 168.262 390.333 168.257 390.584C168.236 390.515 168.206 390.446 168.185 390.376C167.816 389.128 167.615 387.874 167.484 386.69C167.407 386.002 167.371 385.341 167.351 384.696C167.787 384.643 169.779 384.378 170.603 383.878C171.393 383.4 172.267 382.571 172.367 381.598C172.465 380.646 171.79 379.737 170.792 379.736C169.407 379.733 167.978 381.782 167.597 382.959C167.576 383.023 167.437 383.697 167.343 384.189C167.338 383.898 167.328 383.598 167.33 383.319C167.332 382.272 167.398 381.313 167.464 380.464C167.505 379.981 167.552 379.546 167.6 379.139C168.001 378.863 169.602 377.733 170.095 376.925C170.576 376.136 170.969 374.998 170.61 374.089C170.258 373.198 169.24 372.704 168.354 373.162C167.124 373.798 166.8 376.275 167.003 377.495C167.021 377.6 167.485 379.217 167.507 379.203C167.507 379.203 167.527 379.19 167.531 379.186C167.477 379.576 167.423 379.996 167.374 380.455C167.29 381.304 167.202 382.264 167.178 383.316C167.151 384.367 167.15 385.509 167.259 386.712C167.366 387.918 167.54 389.181 167.888 390.459C167.892 390.473 167.898 390.488 167.902 390.502C167.684 390.16 167.043 389.223 166.985 389.157C166.176 388.222 164.063 386.89 162.788 387.432C161.87 387.822 161.6 388.922 162.062 389.761C162.535 390.618 163.662 391.042 164.576 391.175Z" fill="#08104F"/>
<path d="M188.326 384.666C188.347 384.679 188.768 383.05 188.783 382.945C188.953 381.72 188.563 379.253 187.316 378.651C186.418 378.217 185.413 378.739 185.086 379.639C184.752 380.558 185.175 381.685 185.678 382.46C186.266 383.37 188.324 384.665 188.326 384.666Z" fill="#08104F"/>
<path d="M207.859 18.4883C201.805 22.0273 199.521 28.8813 198.425 32.1673C196.911 36.7103 191.61 29.1383 181.01 32.9243C170.41 36.7103 168.895 45.0393 166.624 47.3103C164.353 49.5813 149.209 55.6393 149.209 55.6393H301.163" stroke="#08104F" stroke-miterlimit="10" stroke-linecap="round" stroke-linejoin="round"/>
<path d="M308.735 55.6397H327.145C327.145 55.6397 330.174 38.9817 323.359 30.6527C316.544 22.3237 301.401 34.4387 296.858 22.3237C296.858 22.3237 283.229 2.63766 266.571 1.12266C249.913 -0.391339 243.099 12.4807 237.798 19.2947C232.498 26.1097 229.469 16.2657 216.597 16.2657" stroke="#08104F" stroke-miterlimit="10" stroke-linecap="round" stroke-linejoin="round"/>
<path d="M236.012 42.1172C232.924 44.9922 232.498 48.8252 232.498 48.8252" stroke="#08104F" stroke-miterlimit="10" stroke-linecap="round" stroke-linejoin="round"/>
<path d="M293.829 29.1395C293.829 29.1395 283.229 18.5395 271.114 19.2965C258.999 20.0535 263.542 34.4395 258.242 38.9825C252.942 43.5255 246.885 37.4685 240.07 39.7395" stroke="#08104F" stroke-miterlimit="10" stroke-linecap="round" stroke-linejoin="round"/>
<path d="M55.9793 65.7773C52.0243 68.0893 50.5323 72.5673 49.8163 74.7143C48.8273 77.6823 45.3643 72.7353 38.4383 75.2093C31.5123 77.6823 30.5233 83.1243 29.0393 84.6083C27.5553 86.0923 17.6613 90.0503 17.6613 90.0503H116.937" stroke="#08104F" stroke-miterlimit="10" stroke-linecap="round" stroke-linejoin="round"/>
<path d="M121.884 90.0487H133.912C133.912 90.0487 135.891 79.1657 131.439 73.7237C126.987 68.2817 117.093 76.1967 114.125 68.2827C114.125 68.2827 105.221 55.4207 94.3383 54.4317C83.4553 53.4427 79.0033 61.8517 75.5403 66.3037C72.0773 70.7557 70.0993 64.3247 61.6893 64.3247" stroke="#08104F" stroke-miterlimit="10" stroke-linecap="round" stroke-linejoin="round"/>
<path d="M74.3723 81.2148C72.3553 83.0928 72.0763 85.5978 72.0763 85.5978" stroke="#08104F" stroke-miterlimit="10" stroke-linecap="round" stroke-linejoin="round"/>
<path d="M112.146 72.7376C112.146 72.7376 105.22 65.8116 97.3063 66.3066C89.3913 66.8016 92.3593 76.2006 88.8963 79.1686C85.4333 82.1366 81.4763 78.1796 77.0243 79.6636" stroke="#08104F" stroke-miterlimit="10" stroke-linecap="round" stroke-linejoin="round"/>
<path d="M258.122 105.633C255.364 107.245 254.323 110.368 253.824 111.865C253.134 113.935 250.719 110.485 245.89 112.21C241.061 113.935 240.371 117.729 239.336 118.764C238.301 119.799 231.402 122.559 231.402 122.559H300.632" stroke="#08104F" stroke-miterlimit="10" stroke-linecap="round" stroke-linejoin="round"/>
<path d="M304.08 122.558H312.467C312.467 122.558 313.847 114.969 310.742 111.174C307.637 107.379 300.738 112.899 298.668 107.379C298.668 107.379 292.459 98.41 284.87 97.72C277.281 97.03 274.176 102.894 271.761 105.999C269.346 109.104 267.966 104.619 262.102 104.619" stroke="#08104F" stroke-miterlimit="10" stroke-linecap="round" stroke-linejoin="round"/>
<path d="M270.948 116.398C269.541 117.708 269.347 119.454 269.347 119.454" stroke="#08104F" stroke-miterlimit="10" stroke-linecap="round" stroke-linejoin="round"/>
<path d="M297.289 110.483C297.289 110.483 292.46 105.654 286.94 105.998C281.42 106.343 283.49 112.897 281.076 114.967C278.661 117.037 275.902 114.277 272.797 115.312" stroke="#08104F" stroke-miterlimit="10" stroke-linecap="round" stroke-linejoin="round"/>
<path d="M87.1362 323.113V281.407H36.4182V256.677L80.6392 153.355H114.381V258.354H131.776V281.407H114.381V323.113H87.1362ZM60.7292 258.354H87.1362V184.583L60.7292 258.354Z" fill="#08104F" stroke="#08104F" stroke-miterlimit="10" stroke-linecap="round" stroke-linejoin="round"/>
<path d="M191.295 325.63C181.373 325.63 173.167 323.534 166.67 319.343C160.173 315.151 155.281 309.355 152 301.948C148.715 294.544 147.075 286.02 147.075 276.38V201.141C147.075 191.222 148.647 182.524 151.79 175.049C154.934 167.576 159.754 161.741 166.251 157.549C172.748 153.357 181.095 151.262 191.295 151.262C201.492 151.262 209.843 153.357 216.339 157.549C222.836 161.741 227.657 167.576 230.8 175.049C233.944 182.524 235.516 191.222 235.516 201.141V276.379C235.516 286.019 233.872 294.544 230.591 301.947C227.306 309.355 222.418 315.15 215.92 319.342C209.424 323.534 201.215 325.63 191.295 325.63ZM191.295 300.691C195.624 300.691 198.84 299.364 200.936 296.709C203.031 294.056 204.426 290.84 205.127 287.068C205.825 283.296 206.175 279.595 206.175 275.96V201.56C206.175 197.65 205.861 193.773 205.232 189.929C204.603 186.088 203.241 182.839 201.145 180.183C199.049 177.531 195.765 176.201 191.295 176.201C186.822 176.201 183.541 177.531 181.445 180.183C179.35 182.839 177.987 186.088 177.358 189.929C176.729 193.773 176.415 197.65 176.415 201.56V275.96C176.415 279.595 176.798 283.296 177.568 287.068C178.335 290.84 179.769 294.056 181.864 296.709C183.96 299.363 187.104 300.691 191.295 300.691Z" fill="#08104F" stroke="#08104F" stroke-miterlimit="10" stroke-linecap="round" stroke-linejoin="round"/>
<path d="M304.677 323.113V281.407H253.959V256.677L298.18 153.355H331.921V258.354H349.316V281.407H331.921V323.113H304.677ZM278.269 258.354H304.677V184.583L278.269 258.354Z" fill="#08104F" stroke="#08104F" stroke-miterlimit="10" stroke-linecap="round" stroke-linejoin="round"/>
<path d="M99.7732 323.113V281.407H49.0552V256.677L93.2762 153.355H127.018V258.354H144.413V281.407H127.018V323.113H99.7732ZM73.3662 258.354H99.7732V184.583L73.3662 258.354Z" fill="white" stroke="#08104F" stroke-miterlimit="10" stroke-linecap="round" stroke-linejoin="round"/>
<path d="M203.932 325.63C194.01 325.63 185.804 323.534 179.307 319.343C172.81 315.151 167.918 309.355 164.637 301.948C161.352 294.544 159.712 286.02 159.712 276.38V201.141C159.712 191.222 161.284 182.524 164.428 175.049C167.572 167.576 172.392 161.741 178.889 157.549C185.386 153.357 193.733 151.262 203.933 151.262C214.131 151.262 222.481 153.357 228.978 157.549C235.475 161.741 240.296 167.576 243.439 175.049C246.583 182.524 248.155 191.222 248.155 201.141V276.379C248.155 286.019 246.511 294.544 243.23 301.947C239.946 309.355 235.057 315.15 228.559 319.342C222.061 323.534 213.851 325.63 203.932 325.63ZM203.932 300.691C208.261 300.691 211.477 299.364 213.573 296.709C215.669 294.056 217.063 290.84 217.764 287.068C218.462 283.296 218.812 279.595 218.812 275.96V201.56C218.812 197.65 218.498 193.773 217.869 189.929C217.24 186.088 215.878 182.839 213.782 180.183C211.686 177.531 208.402 176.201 203.932 176.201C199.459 176.201 196.178 177.531 194.082 180.183C191.986 182.839 190.624 186.088 189.995 189.929C189.366 193.773 189.052 197.65 189.052 201.56V275.96C189.052 279.595 189.435 283.296 190.205 287.068C190.971 290.84 192.406 294.056 194.501 296.709C196.597 299.363 199.741 300.691 203.932 300.691Z" fill="white" stroke="#08104F" stroke-miterlimit="10" stroke-linecap="round" stroke-linejoin="round"/>
<path d="M317.313 323.113V281.407H266.595V256.677L310.816 153.355H344.557V258.354H361.952V281.407H344.557V323.113H317.313ZM290.905 258.354H317.313V184.583L290.905 258.354Z" fill="white" stroke="#08104F" stroke-miterlimit="10" stroke-linecap="round" stroke-linejoin="round"/>
<path d="M92.0622 145.153C89.7072 145.153 87.8322 144.715 86.4352 143.839C85.0392 142.963 84.0392 141.703 83.4372 140.061C82.8352 138.418 82.5342 136.474 82.5342 134.229V121.785C82.5342 119.54 82.8352 117.616 83.4372 116.015C84.0392 114.413 85.0392 113.188 86.4352 112.339C87.8322 111.491 89.7062 111.066 92.0622 111.066C94.4712 111.066 96.3672 111.491 97.7502 112.339C99.1322 113.188 100.132 114.413 100.748 116.015C101.364 117.617 101.672 119.541 101.672 121.785V134.271C101.672 136.489 101.364 138.413 100.748 140.041C100.132 141.671 99.1322 142.93 97.7502 143.82C96.3672 144.708 94.4712 145.153 92.0622 145.153ZM92.0622 140.676C93.0752 140.676 93.8212 140.457 94.3012 140.019C94.7802 139.581 95.1022 138.979 95.2662 138.212C95.4302 137.446 95.5122 136.61 95.5122 135.707V120.387C95.5122 119.457 95.4302 118.621 95.2662 117.882C95.1022 117.143 94.7802 116.562 94.3012 116.137C93.8222 115.713 93.0752 115.5 92.0622 115.5C91.1032 115.5 90.3782 115.712 89.8852 116.137C89.3922 116.562 89.0642 117.143 88.8992 117.882C88.7342 118.621 88.6532 119.457 88.6532 120.387V135.707C88.6532 136.611 88.7282 137.446 88.8792 138.212C89.0292 138.979 89.3512 139.581 89.8442 140.019C90.3372 140.457 91.0762 140.676 92.0622 140.676Z" fill="#08104F"/>
<path d="M115.184 145.153C112.829 145.153 110.954 144.715 109.557 143.839C108.161 142.963 107.161 141.703 106.559 140.061C105.957 138.418 105.656 136.474 105.656 134.229V121.785C105.656 119.54 105.957 117.616 106.559 116.015C107.161 114.413 108.161 113.188 109.557 112.339C110.953 111.491 112.828 111.066 115.184 111.066C117.593 111.066 119.489 111.491 120.873 112.339C122.255 113.188 123.255 114.413 123.871 116.015C124.487 117.617 124.795 119.541 124.795 121.785V134.271C124.795 136.489 124.487 138.413 123.871 140.041C123.255 141.671 122.255 142.93 120.873 143.82C119.489 144.708 117.593 145.153 115.184 145.153ZM115.184 140.676C116.197 140.676 116.943 140.457 117.423 140.019C117.902 139.581 118.224 138.979 118.388 138.212C118.552 137.446 118.634 136.61 118.634 135.707V120.387C118.634 119.457 118.552 118.621 118.388 117.882C118.224 117.143 117.902 116.562 117.423 116.137C116.943 115.713 116.197 115.5 115.184 115.5C114.225 115.5 113.5 115.712 113.007 116.137C112.514 116.562 112.186 117.143 112.021 117.882C111.857 118.621 111.774 119.457 111.774 120.387V135.707C111.774 136.611 111.849 137.446 112 138.212C112.15 138.979 112.472 139.581 112.965 140.019C113.459 140.457 114.198 140.676 115.184 140.676Z" fill="#08104F"/>
<path d="M129.271 144.701V111.434H139.046C141.045 111.434 142.667 111.804 143.913 112.543C145.159 113.282 146.076 114.357 146.665 115.767C147.254 117.178 147.548 118.882 147.548 120.88C147.548 123.043 147.178 124.789 146.439 126.116C145.7 127.445 144.666 128.409 143.338 129.011C142.01 129.614 140.443 129.915 138.636 129.915H135.35V144.7H129.271V144.701ZM135.349 125.645H137.649C138.744 125.645 139.6 125.488 140.216 125.173C140.832 124.859 141.256 124.352 141.489 123.653C141.721 122.955 141.838 122.017 141.838 120.84C141.838 119.636 141.749 118.657 141.571 117.904C141.393 117.151 141.01 116.597 140.421 116.241C139.832 115.885 138.908 115.707 137.649 115.707H135.349V125.645Z" fill="#08104F"/>
<path d="M159.129 145.153C157.13 145.153 155.459 144.763 154.118 143.982C152.776 143.202 151.763 142.059 151.079 140.553C150.394 139.047 150.011 137.199 149.929 135.009L155.145 133.982C155.2 135.269 155.357 136.405 155.617 137.391C155.877 138.377 156.274 139.137 156.808 139.67C157.342 140.204 158.046 140.471 158.923 140.471C159.909 140.471 160.607 140.177 161.018 139.588C161.429 138.999 161.634 138.253 161.634 137.35C161.634 135.899 161.306 134.708 160.648 133.777C159.991 132.846 159.115 131.915 158.02 130.984L153.831 127.288C152.653 126.276 151.716 125.146 151.017 123.9C150.319 122.654 149.97 121.114 149.97 119.28C149.97 116.651 150.736 114.626 152.27 113.202C153.803 111.779 155.898 111.066 158.554 111.066C160.115 111.066 161.415 111.306 162.456 111.785C163.496 112.265 164.325 112.929 164.941 113.777C165.557 114.626 166.015 115.591 166.317 116.672C166.618 117.754 166.81 118.897 166.892 120.101L161.717 121.005C161.662 119.965 161.546 119.034 161.368 118.212C161.19 117.39 160.875 116.748 160.423 116.281C159.971 115.816 159.307 115.583 158.431 115.583C157.528 115.583 156.836 115.878 156.357 116.466C155.878 117.055 155.638 117.788 155.638 118.663C155.638 119.786 155.87 120.71 156.336 121.435C156.801 122.161 157.472 122.907 158.348 123.674L162.496 127.329C163.865 128.479 165.036 129.828 166.008 131.375C166.98 132.922 167.466 134.791 167.466 136.981C167.466 138.569 167.117 139.979 166.419 141.211C165.721 142.443 164.749 143.408 163.503 144.107C162.257 144.804 160.799 145.153 159.129 145.153Z" fill="#08104F"/>
<path d="M170.177 144.703V139.282H175.598V144.703H170.177ZM171.902 136.9L170.218 111.477H175.803L173.832 136.9H171.902Z" fill="#08104F"/>
<path d="M319.732 343.713V350.863H323.457V346.669C323.457 344.83 324.948 343.339 326.787 343.339H339.011C340.85 343.339 342.341 344.83 342.341 346.669V350.863H346.066V343.713C346.066 341.874 344.575 340.383 342.736 340.383H323.062C321.223 340.383 319.732 341.874 319.732 343.713Z" fill="#08104F" stroke="#08104F" stroke-miterlimit="10" stroke-linecap="round" stroke-linejoin="round"/>
<path d="M358.999 348.914H288.46C285.863 348.914 283.758 351.019 283.758 353.616V410.312C283.758 411.984 285.113 413.339 286.785 413.339H360.675C362.347 413.339 363.702 411.984 363.702 410.312V353.616C363.701 351.02 361.596 348.914 358.999 348.914Z" fill="#08104F" stroke="#08104F" stroke-miterlimit="10" stroke-linecap="round" stroke-linejoin="round"/>
<path d="M368.775 348.914H298.236C295.639 348.914 293.534 351.019 293.534 353.616V410.312C293.534 411.984 294.889 413.339 296.561 413.339H370.451C372.123 413.339 373.478 411.984 373.478 410.312V353.616C373.477 351.02 371.372 348.914 368.775 348.914Z" fill="#8A8A8A" stroke="#08104F" stroke-miterlimit="10" stroke-linecap="round" stroke-linejoin="round"/>
<path d="M393.543 222.372C393.543 222.372 373.438 282.769 371.7 293.702C369.963 304.635 371.08 318.21 372.125 325.078C373.17 331.945 383.875 391.258 383.875 391.258C383.875 391.258 381.225 390.364 381.031 392.281C380.837 394.198 381.505 402.309 381.505 402.309C381.505 402.309 378.728 406.199 371.417 410.433C364.106 414.668 360.551 415.946 362.734 417.329C364.918 418.712 374.252 419.21 378.063 418.643C381.874 418.076 392.125 416.879 393.791 416.601C395.458 416.323 400.503 417.4 402.108 414.494C403.713 411.588 402.551 402.771 402.956 399.654C403.361 396.537 401.093 391.571 401.077 390.854C401.06 390.137 399.057 323.099 399.057 323.099L400.324 306.45C400.324 306.45 399.951 322.306 401.775 324.074C403.599 325.842 422.617 392.022 422.617 392.022L420.773 394.934L423.074 401.334L421.258 405.44C421.258 405.44 412.603 413.531 409.065 415.526C405.526 417.521 401.954 418.083 403.904 419.71C405.854 421.338 424.955 420.412 424.955 420.412L444.939 416.358C444.939 416.358 447.966 412.941 447.421 410.085C446.876 407.229 444.246 397.013 444.246 397.013C444.246 397.013 444.888 383.612 444.16 383.151C443.432 382.69 439.731 377.757 439.447 375.851C439.163 373.945 437.085 336.512 434.889 330.218C432.692 323.925 429.964 314.079 429.964 314.079C429.964 314.079 431.513 312.513 431.614 310.826C431.715 309.139 431.222 306.063 431.222 306.063C431.222 306.063 452.088 251.763 453.044 248.656C454 245.549 458.301 228.822 458.301 222.131C458.301 215.44 457.823 210.422 457.823 210.422C457.823 210.422 441.573 217.83 425.085 218.547C408.596 219.264 394.019 218.308 394.019 218.308L393.543 222.372Z" fill="#08104F" stroke="#08104F" stroke-miterlimit="10" stroke-linecap="round" stroke-linejoin="round"/>
<path d="M443.487 224.52C443.487 224.52 443.487 240.77 451.612 243.876" stroke="white" stroke-miterlimit="10" stroke-linecap="round" stroke-linejoin="round"/>
<path d="M455.197 219.742C455.197 219.742 455.675 230.734 453.524 240.532" stroke="white" stroke-miterlimit="10" stroke-linecap="round" stroke-linejoin="round"/>
<path d="M439.613 269.551C437.387 274.29 435.682 277.969 435.601 278.29" stroke="white" stroke-miterlimit="10" stroke-linecap="round" stroke-linejoin="round"/>
<path d="M450.417 246.746C450.417 246.746 445.204 257.684 440.962 266.683" stroke="white" stroke-miterlimit="10" stroke-linecap="round" stroke-linejoin="round"/>
<path d="M402.406 291.505L411.227 253.676L401.907 245.551" stroke="white" stroke-miterlimit="10" stroke-linecap="round" stroke-linejoin="round"/>
<path d="M400.49 299.721L401.406 295.793" stroke="white" stroke-miterlimit="10" stroke-linecap="round" stroke-linejoin="round"/>
<path d="M354.614 135.81L330.683 146.231C330.683 146.231 344.964 116.511 345.543 114.774C346.122 113.037 337.63 98.3703 337.823 97.7913C338.016 97.2123 345.35 88.3353 345.543 86.4053C345.736 84.4753 349.789 77.7203 346.701 77.3353C343.613 76.9493 327.209 92.1953 326.823 96.0553C326.437 99.9153 334.157 113.038 334.929 114.196C335.701 115.354 295.173 158.776 294.401 165.724C293.629 172.672 296.91 177.11 302.7 177.882C308.49 178.654 354.035 163.022 360.983 161.092C367.931 159.162 370.246 162.25 370.246 162.25C370.246 162.25 392.054 188.689 393.598 191.97C395.142 195.251 394.37 207.409 392.633 211.076C390.896 214.743 388.966 221.111 389.931 222.076C390.896 223.041 391.605 224.23 394.499 225.002C397.394 225.774 417.528 228.252 428.915 226.515C440.301 224.778 453.811 218.795 456.898 216.48C459.986 214.164 460.372 211.462 460.372 207.988C460.372 204.514 458.056 201.426 456.512 197.952C454.968 194.478 444.74 162.635 440.494 152.406C436.248 142.178 437.599 134.458 421.581 125.388C405.563 116.318 386.775 118.22 386.775 118.22L354.614 135.81Z" fill="#D4D6DB" stroke="#08104F" stroke-miterlimit="10" stroke-linecap="round" stroke-linejoin="round"/>
<path d="M329.724 160.785L329.525 163.792" stroke="#08104F" stroke-miterlimit="10" stroke-linecap="round" stroke-linejoin="round"/>
<path d="M324.508 165.529L330.683 146.23L329.873 158.515" stroke="#08104F" stroke-miterlimit="10" stroke-linecap="round" stroke-linejoin="round"/>
<path d="M323.929 129.055C323.929 129.055 324.894 136.389 334.35 136.775" stroke="#08104F" stroke-miterlimit="10" stroke-linecap="round" stroke-linejoin="round"/>
<path d="M368.123 160.51C368.123 160.51 361.175 155.878 354.035 153.562L368.123 160.51Z" fill="white"/>
<path d="M368.123 160.51C368.123 160.51 361.175 155.878 354.035 153.562" stroke="#08104F" stroke-miterlimit="10" stroke-linecap="round" stroke-linejoin="round"/>
<path d="M351.929 156.051C351.158 155.921 350.378 155.799 349.596 155.688" stroke="#08104F" stroke-miterlimit="10" stroke-linecap="round" stroke-linejoin="round"/>
<path d="M365.614 159.16C365.614 159.16 360.695 157.72 354.64 156.543" stroke="#08104F" stroke-miterlimit="10" stroke-linecap="round" stroke-linejoin="round"/>
<path d="M400.994 198.582C401.673 199.141 402.156 199.497 402.282 199.497" stroke="#08104F" stroke-miterlimit="10" stroke-linecap="round" stroke-linejoin="round"/>
<path d="M393.598 191.969C393.598 191.969 397.002 195.13 399.555 197.354" stroke="#08104F" stroke-miterlimit="10" stroke-linecap="round" stroke-linejoin="round"/>
<path d="M435.283 225.355L452.459 214.547" stroke="#08104F" stroke-miterlimit="10" stroke-linecap="round" stroke-linejoin="round"/>
<path d="M445.067 183.223C443.13 191.068 439.373 204.432 434.898 210.882" stroke="#08104F" stroke-miterlimit="10" stroke-linecap="round" stroke-linejoin="round"/>
<path d="M446.477 177.109C446.477 177.109 446.233 178.293 445.782 180.239" stroke="#08104F" stroke-miterlimit="10" stroke-linecap="round" stroke-linejoin="round"/>
<path d="M446.477 187.336C446.477 187.336 442.81 203.354 439.915 207.793" stroke="#08104F" stroke-miterlimit="10" stroke-linecap="round" stroke-linejoin="round"/>
<path d="M340.738 125.168C343.264 119.833 345.331 115.409 345.543 114.77C346.122 113.033 337.63 98.3664 337.823 97.7874C338.016 97.2084 345.35 88.3314 345.543 86.4014C345.736 84.4714 349.789 77.7164 346.701 77.3314C343.613 76.9454 327.209 92.1914 326.823 96.0514C326.437 99.9114 334.157 113.034 334.929 114.192C335.092 114.437 333.407 116.573 330.647 119.849C331.721 122.468 334.346 125.789 340.738 125.168Z" fill="white" stroke="#08104F" stroke-miterlimit="10" stroke-linecap="round" stroke-linejoin="round"/>
<path d="M337.377 87.4492C337.377 87.4492 332.54 96.8212 332.718 97.5332" stroke="#08104F" stroke-miterlimit="10" stroke-linecap="round" stroke-linejoin="round"/>
<path d="M333.785 87.5625C333.785 87.5625 328.267 95.3945 328.623 96.6405" stroke="#08104F" stroke-miterlimit="10" stroke-linecap="round" stroke-linejoin="round"/>
<path d="M375.264 157.617L382.983 173.25L386.65 173.443L389.738 155.88L387.229 151.828L385.492 162.828L380.86 162.635L375.457 154.53L375.264 157.617Z" fill="#8A8A8A" stroke="#08104F" stroke-miterlimit="10" stroke-linecap="round" stroke-linejoin="round"/>
<path d="M382.983 173.25L376.586 219.838L383.984 235.4L391.91 219.23L386.65 173.443L382.983 173.25Z" fill="#8A8A8A" stroke="#08104F" stroke-miterlimit="10" stroke-linecap="round" stroke-linejoin="round"/>
<path d="M381.836 170.926L387.755 167.158L389.589 156.73L386.105 158.948L385.492 162.829L380.86 162.636L380.697 162.391L378.356 163.881L381.836 170.926Z" fill="#08104F"/>
<path d="M386.65 173.444L386.659 173.391L386.583 173.44L386.65 173.444Z" fill="#08104F"/>
<path d="M388.229 187.188L380.384 192.181L378.99 202.328L389.22 195.816L388.229 187.188Z" fill="#08104F"/>
<path d="M387.636 182.027L386.65 173.441L386.583 173.438L382.61 175.967L381.217 186.115L387.636 182.027Z" fill="#08104F"/>
<path d="M389.813 200.973L378.157 208.394L376.764 218.541L390.804 209.603L389.813 200.973Z" fill="#08104F"/>
<path d="M388.727 225.722L391.91 219.229L391.397 214.762L378.175 223.179L381.555 230.289L388.727 225.722Z" fill="#08104F"/>
<path d="M369.86 139.669C369.86 139.669 368.316 149.125 368.509 153.371C368.702 157.617 370.825 165.143 370.825 165.143L380.282 154.336L396.107 164.178C396.107 164.178 395.528 144.107 395.528 143.528C395.528 142.949 391.861 121.334 390.703 119.211C389.545 117.088 386.457 115.93 384.72 116.316C382.983 116.704 369.86 139.669 369.86 139.669Z" fill="#D4D6DB" stroke="#08104F" stroke-miterlimit="10" stroke-linecap="round" stroke-linejoin="round"/>
<path d="M343.198 86.9512C343.198 86.9512 342.699 101.088 343.032 106.744C343.365 112.399 342.533 116.89 344.03 121.547C345.527 126.204 347.19 135.186 348.687 138.179C350.184 141.173 353.344 144 358.001 144C362.658 144 367.814 140.175 370.309 137.68C372.804 135.185 377.128 131.692 379.457 127.202C381.786 122.711 379.79 111.401 380.122 108.241C380.455 105.081 381.12 99.5922 381.12 99.5922C381.12 99.5922 384.446 91.4422 381.785 87.6172C379.124 83.7912 367.315 79.4672 358.333 80.2992C349.352 81.1302 343.198 86.9512 343.198 86.9512Z" fill="white" stroke="#08104F" stroke-miterlimit="10" stroke-linecap="round" stroke-linejoin="round"/>
<path d="M351.015 102.918L352.346 107.908C352.346 107.908 348.354 119.551 349.352 120.216C350.35 120.881 358.5 120.05 358.5 120.05" stroke="#08104F" stroke-miterlimit="10" stroke-linecap="round" stroke-linejoin="round"/>
<path d="M357.502 97.7639C357.502 97.7639 357.336 99.5939 358.001 99.9259C358.666 100.259 365.153 102.753 366.151 102.421C367.149 102.088 365.818 100.758 364.987 100.425C364.155 100.093 357.169 96.2669 357.502 97.7639Z" fill="#08104F" stroke="#08104F" stroke-miterlimit="10" stroke-linecap="round" stroke-linejoin="round"/>
<path d="M351.015 100.424C351.015 100.424 345.693 103.418 344.695 103.584C343.697 103.75 345.36 101.588 345.36 101.588C345.36 101.588 349.352 97.0975 350.35 97.7625C351.348 98.4295 351.015 100.424 351.015 100.424Z" fill="#08104F" stroke="#08104F" stroke-miterlimit="10" stroke-linecap="round" stroke-linejoin="round"/>
<path d="M359.498 107.078C359.498 107.078 362.326 110.072 366.151 107.743" stroke="#08104F" stroke-miterlimit="10" stroke-linecap="round" stroke-linejoin="round"/>
<path d="M345.693 108.408C345.693 108.408 348.354 110.071 351.015 107.41" stroke="#08104F" stroke-miterlimit="10" stroke-linecap="round" stroke-linejoin="round"/>
<path d="M380.122 108.242C380.424 105.377 380.997 100.611 381.102 99.7437L377.794 97.9297C377.794 97.9297 378.792 110.238 377.461 117.057C376.131 123.876 373.802 126.038 371.141 127.036C368.48 128.034 367.149 126.703 367.149 126.703C367.149 126.703 360.829 120.715 355.174 120.549C350.238 120.404 346.443 125.833 345.558 127.216C346.609 131.492 347.685 136.176 348.687 138.179C350.184 141.173 353.344 144 358.001 144C362.658 144 367.814 140.175 370.309 137.68C372.804 135.185 377.128 131.692 379.457 127.202C381.785 122.712 379.789 111.402 380.122 108.242Z" fill="#08104F" stroke="#08104F" stroke-miterlimit="10" stroke-linecap="round" stroke-linejoin="round"/>
<path d="M363.157 131.691C363.157 131.691 359.664 126.701 356.338 125.87C353.011 125.038 349.519 131.525 350.683 132.689C351.847 133.853 353.51 129.529 356.671 130.86C359.83 132.19 361.66 134.353 363.157 131.691Z" fill="white" stroke="#08104F" stroke-miterlimit="10" stroke-linecap="round" stroke-linejoin="round"/>
<path d="M342.699 78.1352C342.699 78.1352 337.709 76.6382 334.549 78.3012C331.389 79.9642 329.892 83.6232 329.892 83.6232L336.379 84.1222L339.373 85.6192C339.373 85.6192 338.042 85.6192 337.377 87.4492C336.712 89.2792 336.213 91.4412 336.213 91.4412C336.213 91.4412 338.542 90.1102 342.201 89.6122C345.86 89.1132 353.012 86.9512 353.012 86.9512L353.844 92.4402C353.844 92.4402 358.002 89.7792 361.329 88.7812C364.655 87.7832 366.651 85.6212 366.651 85.6212C366.651 85.6212 375.3 88.9482 375.133 90.4442C374.967 91.9412 371.973 95.6002 372.971 96.7642C373.969 97.9282 376.63 100.423 376.63 100.423L386.609 106.078C386.609 106.078 390.268 100.423 392.098 91.4422C393.928 82.4612 385.611 72.8142 378.626 70.1532C371.641 67.4922 366.484 68.4902 362.16 68.6562C357.836 68.8222 351.848 67.4922 351.848 67.4922L355.84 71.6502C355.84 71.6502 352.015 73.1472 350.351 73.4802C348.688 73.8132 345.86 74.6442 345.195 74.3122C344.53 73.9792 342.201 72.4832 342.201 72.4832C342.201 72.4832 341.036 77.4702 342.699 78.1352Z" fill="#08104F" stroke="#08104F" stroke-miterlimit="10" stroke-linecap="round" stroke-linejoin="round"/>
<path d="M382.783 115.226C382.783 115.226 385.278 113.895 386.608 111.9C387.939 109.904 391.764 102.253 387.273 100.091C383.871 98.4531 381.617 101.394 380.723 102.917C380.52 104.649 380.282 106.715 380.121 108.241C379.788 111.401 381.784 122.711 379.456 127.202C377.128 131.693 372.803 135.186 370.308 137.68C369.351 138.638 367.999 139.79 366.436 140.848L370.641 142.004C370.641 142.004 371.972 146.162 375.631 150.819C379.29 155.476 382.45 158.47 382.45 158.47C382.45 158.47 383.448 152.482 386.109 139.176C388.77 125.87 386.774 118.219 386.774 118.219L382.783 115.226Z" fill="white" stroke="#08104F" stroke-miterlimit="10" stroke-linecap="round" stroke-linejoin="round"/>
<path d="M370.641 142.004L376.462 143.667L373.635 147.825C373.635 147.825 371.307 144 370.641 142.004Z" fill="#08104F" stroke="#08104F" stroke-miterlimit="10" stroke-linecap="round" stroke-linejoin="round"/>
<path d="M405.756 137.547L410.581 258.165L421.388 258.937C421.388 258.937 430.651 219.953 433.353 206.637C436.055 193.321 437.02 184.829 436.827 174.215C436.634 163.601 434.125 141.6 434.125 141.6C434.125 141.6 428.528 132.144 423.704 128.863" fill="#D4D6DB"/>
<path d="M405.756 137.547L410.581 258.165L421.388 258.937C421.388 258.937 430.651 219.953 433.353 206.637C436.055 193.321 437.02 184.829 436.827 174.215C436.634 163.601 434.125 141.6 434.125 141.6C434.125 141.6 428.528 132.144 423.704 128.863" stroke="#08104F" stroke-miterlimit="10" stroke-linecap="round" stroke-linejoin="round"/>
<path d="M427.705 160.104C428.704 156.951 429.3 154.918 429.3 154.918" stroke="#08104F" stroke-miterlimit="10" stroke-linecap="round" stroke-linejoin="round"/>
<path d="M408.651 207.407C408.651 207.407 413.283 196.6 418.686 184.634C421.629 178.117 424.515 169.881 426.533 163.734" stroke="#08104F" stroke-miterlimit="10" stroke-linecap="round" stroke-linejoin="round"/>
<path d="M421.487 191.07C421.183 191.9 420.89 192.6 420.616 193.128" stroke="#08104F" stroke-miterlimit="10" stroke-linecap="round" stroke-linejoin="round"/>
<path d="M427.178 169.004C427.178 169.004 424.797 180.342 422.555 187.81" stroke="#08104F" stroke-miterlimit="10" stroke-linecap="round" stroke-linejoin="round"/>
<path d="M410.581 247.551L423.511 248.13" stroke="#08104F" stroke-miterlimit="10" stroke-linecap="round" stroke-linejoin="round"/>
<path d="M410.581 258.164C410.581 258.164 409.072 276.784 409.072 278.393C409.072 280.002 410.36 291.751 410.681 292.717C411.003 293.683 419.211 299.799 420.016 299.799C420.821 299.799 425.327 300.282 426.132 298.994C426.937 297.706 427.259 296.902 426.132 296.58C425.005 296.258 421.947 296.419 421.947 296.419L420.177 295.614C420.177 295.614 426.776 294.97 427.259 294.809C427.742 294.648 430.156 293.039 430.639 291.912C431.122 290.785 430.317 289.498 430.317 289.498C430.317 289.498 432.731 287.245 432.892 286.44C433.053 285.635 433.214 283.382 432.087 283.704C430.96 284.026 429.351 285.796 429.351 285.796H425.327C425.327 285.796 429.512 283.06 429.994 282.255C430.477 281.45 431.121 278.07 430.96 277.105C430.799 276.139 428.707 277.266 428.224 278.232C427.741 279.198 426.936 281.773 426.936 281.773L422.108 282.417L420.499 280.325C420.499 280.325 423.718 270.346 423.718 268.254C423.718 266.162 421.388 258.936 421.388 258.936L410.581 258.164Z" fill="white" stroke="#08104F" stroke-miterlimit="10" stroke-linecap="round" stroke-linejoin="round"/>
<path d="M416.476 282.578C416.476 282.578 420.017 285.636 420.983 285.958C421.949 286.28 425.328 285.797 425.328 285.797" stroke="#08104F" stroke-miterlimit="10" stroke-linecap="round" stroke-linejoin="round"/>
<path d="M414.383 286.117C414.383 286.117 419.855 290.945 421.304 290.945C422.752 290.945 430.317 289.497 430.317 289.497" stroke="#08104F" stroke-miterlimit="10" stroke-linecap="round" stroke-linejoin="round"/>
<path d="M413.257 290.305C413.257 290.305 416.476 294.168 417.442 294.489C418.408 294.81 420.178 295.616 420.178 295.616" stroke="#08104F" stroke-miterlimit="10" stroke-linecap="round" stroke-linejoin="round"/>
</svg>
