<svg width="527" height="317" viewBox="0 0 527 317" fill="none" xmlns="http://www.w3.org/2000/svg">
<path d="M342.873 128.979V141.463H359.249V128.979H342.873ZM342.225 128.33H359.898V142.111H342.225V128.33Z" fill="#08104F"/>
<path d="M300.419 128.979V141.463H335.616V128.979H300.419ZM299.77 128.33H336.265V142.111H299.77V128.33Z" fill="#08104F"/>
<path d="M292.363 139.43V315.627H367.306V139.43H292.363ZM291.714 138.782H367.955V316.275H291.714V138.782Z" fill="#08104F"/>
<path d="M296.654 143.832V144.396H363.016V143.832H296.654ZM296.005 143.184H363.665V145.045H296.005V143.184Z" fill="#08104F"/>
<path d="M296.654 149.791V150.355H363.016V149.791H296.654ZM296.005 149.142H363.665V151.003H296.005V149.142Z" fill="#08104F"/>
<path d="M296.654 155.749V156.313H363.016V155.749H296.654ZM296.005 155.101H363.665V156.962H296.005V155.101Z" fill="#08104F"/>
<path d="M296.654 161.708V162.272H363.016V161.708H296.654ZM296.005 161.06H363.665V162.921H296.005V161.06Z" fill="#08104F"/>
<path d="M296.654 167.664V168.229H363.016V167.664H296.654ZM296.005 167.016H363.665V168.878H296.005V167.016Z" fill="#08104F"/>
<path d="M296.654 173.626V174.187H363.016V173.626H296.654ZM296.005 172.977H363.665V174.836H296.005V172.977Z" fill="#08104F"/>
<path d="M296.654 179.58V180.144H363.016V179.58H296.654ZM296.005 178.932H363.665V180.793H296.005V178.932Z" fill="#08104F"/>
<path d="M296.654 185.539V186.104H363.016V185.539H296.654ZM296.005 184.891H363.665V186.753H296.005V184.891Z" fill="#08104F"/>
<path d="M296.654 191.498V192.062H363.016V191.498H296.654ZM296.005 190.85H363.665V192.711H296.005V190.85Z" fill="#08104F"/>
<path d="M296.654 197.457V198.021H363.016V197.457H296.654ZM296.005 196.808H363.665V198.669H296.005V196.808Z" fill="#08104F"/>
<path d="M296.654 203.414V203.978H363.016V203.414H296.654ZM296.005 202.766H363.665V204.627H296.005V202.766Z" fill="#08104F"/>
<path d="M296.654 209.37V209.937H363.016V209.37H296.654ZM296.005 208.722H363.665V210.585H296.005V208.722Z" fill="#08104F"/>
<path d="M296.654 215.329V215.895H363.016V215.329H296.654ZM296.005 214.681H363.665V216.544H296.005V214.681Z" fill="#08104F"/>
<path d="M296.654 221.288V221.851H363.016V221.288H296.654ZM296.005 220.639H363.665V222.5H296.005V220.639Z" fill="#08104F"/>
<path d="M296.654 227.246V227.811H363.016V227.246H296.654ZM296.005 226.598H363.665V228.46H296.005V226.598Z" fill="#08104F"/>
<path d="M296.654 233.204V233.769H363.016V233.204H296.654ZM296.005 232.556H363.665V234.418H296.005V232.556Z" fill="#08104F"/>
<path d="M296.654 239.163V239.73H363.016V239.163H296.654ZM296.005 238.514H363.665V240.378H296.005V238.514Z" fill="#08104F"/>
<path d="M296.654 245.122V245.686H363.016V245.122H296.654ZM296.005 244.473H363.665V246.334H296.005V244.473Z" fill="#08104F"/>
<path d="M296.654 251.079V251.644H363.016V251.079H296.654ZM296.005 250.431H363.665V252.293H296.005V250.431Z" fill="#08104F"/>
<path d="M296.654 257.036V257.602H363.016V257.036H296.654ZM296.005 256.388H363.665V258.25H296.005V256.388Z" fill="#08104F"/>
<path d="M296.654 262.997V263.56H363.016V262.997H296.654ZM296.005 262.348H363.665V264.209H296.005V262.348Z" fill="#08104F"/>
<path d="M296.654 268.954V269.519H363.016V268.954H296.654ZM296.005 268.305H363.665V270.168H296.005V268.305Z" fill="#08104F"/>
<path d="M296.654 274.911V275.476H363.016V274.911H296.654ZM296.005 274.263H363.665V276.125H296.005V274.263Z" fill="#08104F"/>
<path d="M296.654 280.87V281.434H363.016V280.87H296.654ZM296.005 280.222H363.665V282.083H296.005V280.222Z" fill="#08104F"/>
<path d="M296.654 286.828V287.394H363.016V286.828H296.654ZM296.005 286.179H363.665V288.043H296.005V286.179Z" fill="#08104F"/>
<path d="M296.654 292.787V293.352H363.016V292.787H296.654ZM296.005 292.138H363.665V294H296.005V292.138Z" fill="#08104F"/>
<path d="M296.654 298.745V299.309H363.016V298.745H296.654ZM296.005 298.097H363.665V299.958H296.005V298.097Z" fill="#08104F"/>
<path d="M296.654 304.701V305.266H363.016V304.701H296.654ZM296.005 304.053H363.665V305.915H296.005V304.053Z" fill="#08104F"/>
<path d="M296.654 310.661V311.225H363.016V310.661H296.654ZM296.005 310.012H363.665V311.873H296.005V310.012Z" fill="#08104F"/>
<path d="M246.257 0.648664V37.0878H246.762V0.648664H246.257ZM245.608 0H247.411V37.7364H245.608V0Z" fill="#08104F"/>
<path d="M232.807 37.3501V78.7836H260.214V37.3501H232.807ZM232.158 36.7012H260.863V79.4323H232.158V36.7012Z" fill="#08104F"/>
<path d="M225.457 79.274V120.207H267.575V79.274H225.457ZM224.808 78.625H268.224V120.856H224.808V78.625Z" fill="#08104F"/>
<path d="M225.455 79.274V79.2854H267.57V79.274H225.455ZM224.806 78.625H268.219V79.9337H224.806V78.625Z" fill="#08104F"/>
<path d="M218.754 115.937V175.874H274.273V115.937H218.754ZM218.105 115.289H274.922V176.523H218.105V115.289Z" fill="#08104F"/>
<path d="M214.178 171.813V248.708H278.84V171.813H214.178ZM213.529 171.164H279.489V249.356H213.529V171.164Z" fill="#08104F"/>
<path d="M218.717 176.468V248.707H219.174V176.468H218.717ZM218.067 175.819H219.823V249.356H218.067V175.819Z" fill="#08104F"/>
<path d="M225.61 176.468V248.707H226.066V176.468H225.61ZM224.961 175.819H226.715V249.356H224.961V175.819Z" fill="#08104F"/>
<path d="M232.503 176.468V248.707H232.959V176.468H232.503ZM231.854 175.819H233.608V249.356H231.854V175.819Z" fill="#08104F"/>
<path d="M239.394 176.468V248.707H239.854V176.468H239.394ZM238.745 175.819H240.503V249.356H238.745V175.819Z" fill="#08104F"/>
<path d="M246.288 176.468V248.707H246.746V176.468H246.288ZM245.639 175.819H247.395V249.356H245.639V175.819Z" fill="#08104F"/>
<path d="M253.17 176.468V248.707H253.639V176.468H253.17ZM252.521 175.819H254.288V249.356H252.521V175.819Z" fill="#08104F"/>
<path d="M260.061 176.468V248.707H260.529V176.468H260.061ZM259.412 175.819H261.178V249.356H259.412V175.819Z" fill="#08104F"/>
<path d="M266.954 176.468V248.707H267.413V176.468H266.954ZM266.304 175.819H268.062V249.356H266.304V175.819Z" fill="#08104F"/>
<path d="M273.847 176.468V248.707H274.302V176.468H273.847ZM273.198 175.819H274.951V249.356H273.198V175.819Z" fill="#08104F"/>
<path d="M207.344 245V315.627H285.68V245H207.344ZM206.694 244.351H286.329V316.275H206.694V244.351Z" fill="#08104F"/>
<path d="M207.344 251.715V252.227H285.68V251.715H207.344ZM206.694 251.066H286.329V252.876H206.694V251.066Z" fill="#08104F"/>
<path d="M207.344 258.8V259.312H285.68V258.8H207.344ZM206.694 258.151H286.329V259.961H206.694V258.151Z" fill="#08104F"/>
<path d="M207.344 265.885V266.398H285.68V265.885H207.344ZM206.694 265.237H286.329V267.047H206.694V265.237Z" fill="#08104F"/>
<path d="M207.344 272.972V273.483H285.68V272.972H207.344ZM206.694 272.324H286.329V274.132H206.694V272.324Z" fill="#08104F"/>
<path d="M207.344 280.058V280.571H285.68V280.058H207.344ZM206.694 279.409H286.329V281.22H206.694V279.409Z" fill="#08104F"/>
<path d="M207.344 287.143V287.654H285.68V287.143H207.344ZM206.694 286.494H286.329V288.302H206.694V286.494Z" fill="#08104F"/>
<path d="M207.344 294.229V294.741H285.68V294.229H207.344ZM206.694 293.581H286.329V295.39H206.694V293.581Z" fill="#08104F"/>
<path d="M207.344 301.315V301.825H285.68V301.315H207.344ZM206.694 300.666H286.329V302.474H206.694V300.666Z" fill="#08104F"/>
<path d="M207.344 308.4V308.913H285.68V308.4H207.344ZM206.694 307.751H286.329V309.562H206.694V307.751Z" fill="#08104F"/>
<path d="M267.631 119.424V123.578H271.675V119.424H267.631ZM266.982 118.775H272.324V124.226H266.982V118.775Z" fill="#08104F"/>
<path d="M267.631 126.841V130.995H271.674V126.841H267.631ZM266.982 126.192H272.324V131.643H266.982V126.192Z" fill="#08104F"/>
<path d="M267.631 134.26V138.412H271.674V134.26H267.631ZM266.982 133.611H272.324V139.061H266.982V133.611Z" fill="#08104F"/>
<path d="M267.631 141.677V145.83H271.674V141.677H267.631ZM266.982 141.028H272.324V146.478H266.982V141.028Z" fill="#08104F"/>
<path d="M267.631 149.094V153.247H271.674V149.094H267.631ZM266.982 148.445H272.324V153.896H266.982V148.445Z" fill="#08104F"/>
<path d="M267.631 156.512V160.665H271.674V156.512H267.631ZM266.982 155.863H272.324V161.314H266.982V155.863Z" fill="#08104F"/>
<path d="M267.631 163.929V168.082H271.674V163.929H267.631ZM266.982 163.28H272.324V168.731H266.982V163.28Z" fill="#08104F"/>
<path d="M258.377 119.424V123.578H262.417V119.424H258.377ZM257.728 118.775H263.066V124.226H257.728V118.775Z" fill="#08104F"/>
<path d="M258.377 126.841V130.995H262.417V126.841H258.377ZM257.728 126.192H263.066V131.643H257.728V126.192Z" fill="#08104F"/>
<path d="M258.377 134.26V138.412H262.417V134.26H258.377ZM257.728 133.611H263.066V139.061H257.728V133.611Z" fill="#08104F"/>
<path d="M258.377 141.677V145.83H262.417V141.677H258.377ZM257.728 141.028H263.066V146.478H257.728V141.028Z" fill="#08104F"/>
<path d="M258.377 149.094V153.247H262.417V149.094H258.377ZM257.728 148.445H263.066V153.896H257.728V148.445Z" fill="#08104F"/>
<path d="M258.377 156.512V160.665H262.417V156.512H258.377ZM257.728 155.863H263.066V161.314H257.728V155.863Z" fill="#08104F"/>
<path d="M258.377 163.929V168.082H262.417V163.929H258.377ZM257.728 163.28H263.066V168.731H257.728V163.28Z" fill="#08104F"/>
<path d="M249.119 119.424V123.578H253.161V119.424H249.119ZM248.47 118.775H253.81V124.226H248.47V118.775Z" fill="#08104F"/>
<path d="M249.119 126.841V130.995H253.161V126.841H249.119ZM248.47 126.192H253.81V131.643H248.47V126.192Z" fill="#08104F"/>
<path d="M249.119 134.26V138.412H253.161V134.26H249.119ZM248.47 133.611H253.81V139.061H248.47V133.611Z" fill="#08104F"/>
<path d="M249.119 141.677V145.83H253.161V141.677H249.119ZM248.47 141.028H253.81V146.478H248.47V141.028Z" fill="#08104F"/>
<path d="M249.119 149.094V153.247H253.161V149.094H249.119ZM248.47 148.445H253.81V153.896H248.47V148.445Z" fill="#08104F"/>
<path d="M249.119 156.512V160.665H253.161V156.512H249.119ZM248.47 155.863H253.81V161.314H248.47V155.863Z" fill="#08104F"/>
<path d="M249.119 163.929V168.082H253.161V163.929H249.119ZM248.47 163.28H253.81V168.731H248.47V163.28Z" fill="#08104F"/>
<path d="M239.864 119.424V123.578H243.905V119.424H239.864ZM239.215 118.775H244.554V124.226H239.215V118.775Z" fill="#08104F"/>
<path d="M239.864 126.841V130.995H243.905V126.841H239.864ZM239.215 126.192H244.554V131.643H239.215V126.192Z" fill="#08104F"/>
<path d="M239.864 134.26V138.412H243.905V134.26H239.864ZM239.215 133.611H244.554V139.061H239.215V133.611Z" fill="#08104F"/>
<path d="M239.864 141.677V145.83H243.905V141.677H239.864ZM239.215 141.028H244.554V146.478H239.215V141.028Z" fill="#08104F"/>
<path d="M239.864 149.094V153.247H243.905V149.094H239.864ZM239.215 148.445H244.554V153.896H239.215V148.445Z" fill="#08104F"/>
<path d="M239.864 156.512V160.665H243.905V156.512H239.864ZM239.215 155.863H244.554V161.314H239.215V155.863Z" fill="#08104F"/>
<path d="M239.864 163.929V168.082H243.905V163.929H239.864ZM239.215 163.28H244.554V168.731H239.215V163.28Z" fill="#08104F"/>
<path d="M230.607 119.424V123.578H234.649V119.424H230.607ZM229.958 118.775H235.298V124.226H229.958V118.775Z" fill="#08104F"/>
<path d="M230.607 126.841V130.995H234.649V126.841H230.607ZM229.958 126.192H235.298V131.643H229.958V126.192Z" fill="#08104F"/>
<path d="M230.607 134.26V138.412H234.649V134.26H230.607ZM229.958 133.611H235.298V139.061H229.958V133.611Z" fill="#08104F"/>
<path d="M230.607 141.677V145.83H234.649V141.677H230.607ZM229.958 141.028H235.298V146.478H229.958V141.028Z" fill="#08104F"/>
<path d="M230.607 149.094V153.247H234.649V149.094H230.607ZM229.958 148.445H235.298V153.896H229.958V148.445Z" fill="#08104F"/>
<path d="M230.607 156.512V160.665H234.649V156.512H230.607ZM229.958 155.863H235.298V161.314H229.958V155.863Z" fill="#08104F"/>
<path d="M230.607 163.929V168.082H234.649V163.929H230.607ZM229.958 163.28H235.298V168.731H229.958V163.28Z" fill="#08104F"/>
<path d="M221.352 119.424V123.578H225.394V119.424H221.352ZM220.703 118.775H226.043V124.226H220.703V118.775Z" fill="#08104F"/>
<path d="M221.352 126.841V130.995H225.394V126.841H221.352ZM220.703 126.192H226.043V131.643H220.703V126.192Z" fill="#08104F"/>
<path d="M221.352 134.26V138.412H225.394V134.26H221.352ZM220.703 133.611H226.043V139.061H220.703V133.611Z" fill="#08104F"/>
<path d="M221.352 141.677V145.83H225.394V141.677H221.352ZM220.703 141.028H226.043V146.478H220.703V141.028Z" fill="#08104F"/>
<path d="M221.352 149.094V153.247H225.394V149.094H221.352ZM220.703 148.445H226.043V153.896H220.703V148.445Z" fill="#08104F"/>
<path d="M221.352 156.512V160.665H225.394V156.512H221.352ZM220.703 155.863H226.043V161.314H220.703V155.863Z" fill="#08104F"/>
<path d="M221.352 163.929V168.082H225.394V163.929H221.352ZM220.703 163.28H226.043V168.731H220.703V163.28Z" fill="#08104F"/>
<path d="M232.158 41.7959H260.863V42.5148H232.158V41.7959Z" fill="#08104F"/>
<path d="M232.158 46.9858H260.863V47.7146H232.158V46.9858Z" fill="#08104F"/>
<path d="M232.158 52.1812H260.863V52.9121H232.158V52.1812Z" fill="#08104F"/>
<path d="M232.158 57.3818H260.863V58.1014H232.158V57.3818Z" fill="#08104F"/>
<path d="M232.158 62.5723H260.863V63.3022H232.158V62.5723Z" fill="#08104F"/>
<path d="M232.158 67.7671H260.863V68.4968H232.158V67.7671Z" fill="#08104F"/>
<path d="M232.158 72.9683H260.863V73.6865H232.158V72.9683Z" fill="#08104F"/>
<path d="M258.464 39.1824V39.9297H259.208V39.1824H258.464ZM257.814 38.5337H259.857V40.5787H257.814V38.5337Z" fill="#08104F"/>
<path d="M254.939 39.1824V39.9297H255.687V39.1824H254.939ZM254.29 38.5337H256.336V40.5787H254.29V38.5337Z" fill="#08104F"/>
<path d="M251.418 39.1824V39.9297H252.166V39.1824H251.418ZM250.769 38.5337H252.815V40.5787H250.769V38.5337Z" fill="#08104F"/>
<path d="M247.898 39.1824V39.9297H248.645V39.1824H247.898ZM247.249 38.5337H249.294V40.5787H247.249V38.5337Z" fill="#08104F"/>
<path d="M244.377 39.1824V39.9297H245.123V39.1824H244.377ZM243.727 38.5337H245.772V40.5787H243.727V38.5337Z" fill="#08104F"/>
<path d="M240.855 39.1824V39.9297H241.601V39.1824H240.855ZM240.206 38.5337H242.25V40.5787H240.206V38.5337Z" fill="#08104F"/>
<path d="M237.334 39.1824V39.9297H238.079V39.1824H237.334ZM236.685 38.5337H238.728V40.5787H236.685V38.5337Z" fill="#08104F"/>
<path d="M233.812 39.1824V39.9297H234.557V39.1824H233.812ZM233.163 38.5337H235.206V40.5787H233.163V38.5337Z" fill="#08104F"/>
<path d="M258.464 44.3796V45.1245H259.208V44.3796H258.464ZM257.814 43.731H259.857V45.7731H257.814V43.731Z" fill="#08104F"/>
<path d="M254.939 44.3796V45.1245H255.687V44.3796H254.939ZM254.29 43.731H256.336V45.7731H254.29V43.731Z" fill="#08104F"/>
<path d="M251.418 44.3796V45.1245H252.166V44.3796H251.418ZM250.769 43.731H252.815V45.7731H250.769V43.731Z" fill="#08104F"/>
<path d="M247.898 44.3796V45.1245H248.645V44.3796H247.898ZM247.249 43.731H249.294V45.7731H247.249V43.731Z" fill="#08104F"/>
<path d="M244.377 44.3796V45.1245H245.123V44.3796H244.377ZM243.727 43.731H245.772V45.7731H243.727V43.731Z" fill="#08104F"/>
<path d="M240.855 44.3796V45.1245H241.601V44.3796H240.855ZM240.206 43.731H242.25V45.7731H240.206V43.731Z" fill="#08104F"/>
<path d="M237.334 44.3796V45.1245H238.079V44.3796H237.334ZM236.685 43.731H238.728V45.7731H236.685V43.731Z" fill="#08104F"/>
<path d="M233.812 44.3796V45.1245H234.557V44.3796H233.812ZM233.163 43.731H235.206V45.7731H233.163V43.731Z" fill="#08104F"/>
<path d="M258.464 49.5744V50.3218H259.208V49.5744H258.464ZM257.814 48.9258H259.857V50.9708H257.814V48.9258Z" fill="#08104F"/>
<path d="M254.939 49.5744V50.3218H255.687V49.5744H254.939ZM254.29 48.9258H256.336V50.9708H254.29V48.9258Z" fill="#08104F"/>
<path d="M251.418 49.5744V50.3218H252.166V49.5744H251.418ZM250.769 48.9258H252.815V50.9708H250.769V48.9258Z" fill="#08104F"/>
<path d="M247.898 49.5744V50.3218H248.645V49.5744H247.898ZM247.249 48.9258H249.294V50.9708H247.249V48.9258Z" fill="#08104F"/>
<path d="M244.377 49.5744V50.3218H245.123V49.5744H244.377ZM243.727 48.9258H245.772V50.9708H243.727V48.9258Z" fill="#08104F"/>
<path d="M240.855 49.5744V50.3218H241.601V49.5744H240.855ZM240.206 48.9258H242.25V50.9708H240.206V48.9258Z" fill="#08104F"/>
<path d="M237.334 49.5744V50.3218H238.079V49.5744H237.334ZM236.685 48.9258H238.728V50.9708H236.685V48.9258Z" fill="#08104F"/>
<path d="M233.812 49.5744V50.3218H234.557V49.5744H233.812ZM233.163 48.9258H235.206V50.9708H233.163V48.9258Z" fill="#08104F"/>
<path d="M258.464 54.7688V55.5162H259.208V54.7688H258.464ZM257.814 54.1201H259.857V56.1651H257.814V54.1201Z" fill="#08104F"/>
<path d="M254.939 54.7688V55.5162H255.687V54.7688H254.939ZM254.29 54.1201H256.336V56.1651H254.29V54.1201Z" fill="#08104F"/>
<path d="M251.418 54.7688V55.5162H252.166V54.7688H251.418ZM250.769 54.1201H252.815V56.1651H250.769V54.1201Z" fill="#08104F"/>
<path d="M247.898 54.7688V55.5162H248.645V54.7688H247.898ZM247.249 54.1201H249.294V56.1651H247.249V54.1201Z" fill="#08104F"/>
<path d="M244.377 54.7688V55.5162H245.123V54.7688H244.377ZM243.727 54.1201H245.772V56.1651H243.727V54.1201Z" fill="#08104F"/>
<path d="M240.855 54.7688V55.5162H241.601V54.7688H240.855ZM240.206 54.1201H242.25V56.1651H240.206V54.1201Z" fill="#08104F"/>
<path d="M237.334 54.7688V55.5162H238.079V54.7688H237.334ZM236.685 54.1201H238.728V56.1651H236.685V54.1201Z" fill="#08104F"/>
<path d="M233.812 54.7688V55.5162H234.557V54.7688H233.812ZM233.163 54.1201H235.206V56.1651H233.163V54.1201Z" fill="#08104F"/>
<path d="M258.464 59.9665V60.7127H259.208V59.9665H258.464ZM257.814 59.3179H259.857V61.3613H257.814V59.3179Z" fill="#08104F"/>
<path d="M254.939 59.9665V60.7127H255.687V59.9665H254.939ZM254.29 59.3179H256.336V61.3613H254.29V59.3179Z" fill="#08104F"/>
<path d="M251.418 59.9665V60.7127H252.166V59.9665H251.418ZM250.769 59.3179H252.815V61.3613H250.769V59.3179Z" fill="#08104F"/>
<path d="M247.898 59.9665V60.7127H248.645V59.9665H247.898ZM247.249 59.3179H249.294V61.3613H247.249V59.3179Z" fill="#08104F"/>
<path d="M244.377 59.9665V60.7127H245.123V59.9665H244.377ZM243.727 59.3179H245.772V61.3613H243.727V59.3179Z" fill="#08104F"/>
<path d="M240.855 59.9665V60.7127H241.601V59.9665H240.855ZM240.206 59.3179H242.25V61.3613H240.206V59.3179Z" fill="#08104F"/>
<path d="M237.334 59.9665V60.7127H238.079V59.9665H237.334ZM236.685 59.3179H238.728V61.3613H236.685V59.3179Z" fill="#08104F"/>
<path d="M233.812 59.9665V60.7127H234.557V59.9665H233.812ZM233.163 59.3179H235.206V61.3613H233.163V59.3179Z" fill="#08104F"/>
<path d="M258.464 65.1614V65.9078H259.208V65.1614H258.464ZM257.814 64.5127H259.857V66.5564H257.814V64.5127Z" fill="#08104F"/>
<path d="M254.939 65.1614V65.9078H255.687V65.1614H254.939ZM254.29 64.5127H256.336V66.5564H254.29V64.5127Z" fill="#08104F"/>
<path d="M251.418 65.1614V65.9078H252.166V65.1614H251.418ZM250.769 64.5127H252.815V66.5564H250.769V64.5127Z" fill="#08104F"/>
<path d="M247.898 65.1614V65.9078H248.645V65.1614H247.898ZM247.249 64.5127H249.294V66.5564H247.249V64.5127Z" fill="#08104F"/>
<path d="M244.377 65.1614V65.9078H245.123V65.1614H244.377ZM243.727 64.5127H245.772V66.5564H243.727V64.5127Z" fill="#08104F"/>
<path d="M240.855 65.1614V65.9078H241.601V65.1614H240.855ZM240.206 64.5127H242.25V66.5564H240.206V64.5127Z" fill="#08104F"/>
<path d="M237.334 65.1614V65.9078H238.079V65.1614H237.334ZM236.685 64.5127H238.728V66.5564H236.685V64.5127Z" fill="#08104F"/>
<path d="M233.812 65.1614V65.9078H234.557V65.1614H233.812ZM233.163 64.5127H235.206V66.5564H233.163V64.5127Z" fill="#08104F"/>
<path d="M258.464 70.3572V71.1033H259.208V70.3572H258.464ZM257.814 69.7085H259.857V71.7523H257.814V69.7085Z" fill="#08104F"/>
<path d="M254.939 70.3572V71.1033H255.687V70.3572H254.939ZM254.29 69.7085H256.336V71.7523H254.29V69.7085Z" fill="#08104F"/>
<path d="M251.418 70.3572V71.1033H252.166V70.3572H251.418ZM250.769 69.7085H252.815V71.7523H250.769V69.7085Z" fill="#08104F"/>
<path d="M247.898 70.3572V71.1033H248.645V70.3572H247.898ZM247.249 69.7085H249.294V71.7523H247.249V69.7085Z" fill="#08104F"/>
<path d="M244.377 70.3572V71.1033H245.123V70.3572H244.377ZM243.727 69.7085H245.772V71.7523H243.727V69.7085Z" fill="#08104F"/>
<path d="M240.855 70.3572V71.1033H241.601V70.3572H240.855ZM240.206 69.7085H242.25V71.7523H240.206V69.7085Z" fill="#08104F"/>
<path d="M237.334 70.3572V71.1033H238.079V70.3572H237.334ZM236.685 69.7085H238.728V71.7523H236.685V69.7085Z" fill="#08104F"/>
<path d="M233.812 70.3572V71.1033H234.557V70.3572H233.812ZM233.163 69.7085H235.206V71.7523H233.163V69.7085Z" fill="#08104F"/>
<path d="M225.457 87.6692V89.4658H267.575V87.6692H225.457ZM224.808 87.0205H268.224V90.1148H224.808V87.0205Z" fill="#08104F"/>
<path d="M225.457 95.1257V96.9119H267.575V95.1257H225.457ZM224.808 94.4771H268.224V97.5609H224.808V94.4771Z" fill="#08104F"/>
<path d="M225.457 102.569V104.356H267.575V102.569H225.457ZM224.808 101.92H268.224V105.005H224.808V101.92Z" fill="#08104F"/>
<path d="M225.457 110.026V111.812H267.575V110.026H225.457ZM224.808 109.377H268.224V112.461H224.808V109.377Z" fill="#08104F"/>
<path d="M488.603 187.209V202.509H510.395V187.209H488.603ZM487.954 186.561H511.043V203.158H487.954V186.561Z" fill="#08104F"/>
<path d="M488.603 187.209V188.078H510.395V187.209H488.603ZM487.954 186.561H511.043V188.727H487.954V186.561Z" fill="#08104F"/>
<path d="M460.233 187.209V202.509H472.974V187.209H460.233ZM459.584 186.561H473.623V203.158H459.584V186.561Z" fill="#08104F"/>
<path d="M460.233 187.209V188.078H472.974V187.209H460.233ZM459.584 186.561H473.623V188.727H459.584V186.561Z" fill="#08104F"/>
<path d="M453.1 201.959V211.707H518.445V201.959H453.1ZM452.451 201.31H519.094V212.355H452.451V201.31Z" fill="#08104F"/>
<path d="M445.662 211.701V315.626H525.885V211.701H445.662ZM445.013 211.053H526.534V316.275H445.013V211.053Z" fill="#08104F"/>
<path d="M445.662 211.701V213.076H525.885V211.701H445.662ZM445.013 211.053H526.534V213.725H445.013V211.053Z" fill="#08104F"/>
<path d="M445.662 223.525V224.902H525.885V223.525H445.662ZM445.013 222.876H526.534V225.551H445.013V222.876Z" fill="#08104F"/>
<path d="M445.662 235.352V236.729H525.885V235.352H445.662ZM445.013 234.703H526.534V237.378H445.013V234.703Z" fill="#08104F"/>
<path d="M445.662 247.177V248.553H525.885V247.177H445.662ZM445.013 246.528H526.534V249.201H445.013V246.528Z" fill="#08104F"/>
<path d="M445.662 259.001V260.377H525.885V259.001H445.662ZM445.013 258.353H526.534V261.026H445.013V258.353Z" fill="#08104F"/>
<path d="M445.662 270.826V272.203H525.885V270.826H445.662ZM445.013 270.178H526.534V272.852H445.013V270.178Z" fill="#08104F"/>
<path d="M445.662 282.65V284.029H525.885V282.65H445.662ZM445.013 282.001H526.534V284.678H445.013V282.001Z" fill="#08104F"/>
<path d="M445.662 294.476V295.853H525.885V294.476H445.662ZM445.013 293.827H526.534V296.502H445.013V293.827Z" fill="#08104F"/>
<path d="M518.126 217.294V219.308H523.217V217.294H518.126ZM517.476 216.646H523.866V219.956H517.476V216.646Z" fill="#08104F"/>
<path d="M508.156 217.294V219.308H513.248V217.294H508.156ZM507.507 216.646H513.897V219.956H507.507V216.646Z" fill="#08104F"/>
<path d="M498.185 217.294V219.308H503.277V217.294H498.185ZM497.536 216.646H503.926V219.956H497.536V216.646Z" fill="#08104F"/>
<path d="M488.212 217.294V219.308H493.304V217.294H488.212ZM487.563 216.646H493.953V219.956H487.563V216.646Z" fill="#08104F"/>
<path d="M478.241 217.294V219.308H483.335V217.294H478.241ZM477.592 216.646H483.984V219.956H477.592V216.646Z" fill="#08104F"/>
<path d="M468.27 217.294V219.308H473.362V217.294H468.27ZM467.621 216.646H474.011V219.956H467.621V216.646Z" fill="#08104F"/>
<path d="M458.299 217.294V219.308H463.391V217.294H458.299ZM457.651 216.646H464.04V219.956H457.651V216.646Z" fill="#08104F"/>
<path d="M448.328 217.294V219.308H453.42V217.294H448.328ZM447.679 216.646H454.069V219.956H447.679V216.646Z" fill="#08104F"/>
<path d="M518.126 229.12V231.134H523.217V229.12H518.126ZM517.476 228.471H523.866V231.782H517.476V228.471Z" fill="#08104F"/>
<path d="M508.156 229.12V231.134H513.248V229.12H508.156ZM507.507 228.471H513.897V231.782H507.507V228.471Z" fill="#08104F"/>
<path d="M498.185 229.12V231.134H503.277V229.12H498.185ZM497.536 228.471H503.926V231.782H497.536V228.471Z" fill="#08104F"/>
<path d="M488.212 229.12V231.134H493.304V229.12H488.212ZM487.563 228.471H493.953V231.782H487.563V228.471Z" fill="#08104F"/>
<path d="M478.241 229.12V231.134H483.335V229.12H478.241ZM477.592 228.471H483.984V231.782H477.592V228.471Z" fill="#08104F"/>
<path d="M468.27 229.12V231.134H473.362V229.12H468.27ZM467.621 228.471H474.011V231.782H467.621V228.471Z" fill="#08104F"/>
<path d="M458.299 229.12V231.134H463.391V229.12H458.299ZM457.651 228.471H464.04V231.782H457.651V228.471Z" fill="#08104F"/>
<path d="M448.328 229.12V231.134H453.42V229.12H448.328ZM447.679 228.471H454.069V231.782H447.679V228.471Z" fill="#08104F"/>
<path d="M518.126 240.944V242.958H523.217V240.944H518.126ZM517.476 240.295H523.866V243.607H517.476V240.295Z" fill="#08104F"/>
<path d="M508.156 240.944V242.958H513.248V240.944H508.156ZM507.507 240.295H513.897V243.607H507.507V240.295Z" fill="#08104F"/>
<path d="M498.185 240.944V242.958H503.277V240.944H498.185ZM497.536 240.295H503.926V243.607H497.536V240.295Z" fill="#08104F"/>
<path d="M488.212 240.944V242.958H493.304V240.944H488.212ZM487.563 240.295H493.953V243.607H487.563V240.295Z" fill="#08104F"/>
<path d="M478.241 240.944V242.958H483.335V240.944H478.241ZM477.592 240.295H483.984V243.607H477.592V240.295Z" fill="#08104F"/>
<path d="M468.27 240.944V242.958H473.362V240.944H468.27ZM467.621 240.295H474.011V243.607H467.621V240.295Z" fill="#08104F"/>
<path d="M458.299 240.944V242.958H463.391V240.944H458.299ZM457.651 240.295H464.04V243.607H457.651V240.295Z" fill="#08104F"/>
<path d="M448.328 240.944V242.958H453.42V240.944H448.328ZM447.679 240.295H454.069V243.607H447.679V240.295Z" fill="#08104F"/>
<path d="M518.126 252.771V254.784H523.217V252.771H518.126ZM517.476 252.122H523.866V255.432H517.476V252.122Z" fill="#08104F"/>
<path d="M508.156 252.771V254.784H513.248V252.771H508.156ZM507.507 252.122H513.897V255.432H507.507V252.122Z" fill="#08104F"/>
<path d="M498.185 252.771V254.784H503.277V252.771H498.185ZM497.536 252.122H503.926V255.432H497.536V252.122Z" fill="#08104F"/>
<path d="M488.212 252.771V254.784H493.304V252.771H488.212ZM487.563 252.122H493.953V255.432H487.563V252.122Z" fill="#08104F"/>
<path d="M478.241 252.771V254.784H483.335V252.771H478.241ZM477.592 252.122H483.984V255.432H477.592V252.122Z" fill="#08104F"/>
<path d="M468.27 252.771V254.784H473.362V252.771H468.27ZM467.621 252.122H474.011V255.432H467.621V252.122Z" fill="#08104F"/>
<path d="M458.299 252.771V254.784H463.391V252.771H458.299ZM457.651 252.122H464.04V255.432H457.651V252.122Z" fill="#08104F"/>
<path d="M448.328 252.771V254.784H453.42V252.771H448.328ZM447.679 252.122H454.069V255.432H447.679V252.122Z" fill="#08104F"/>
<path d="M518.126 264.595V266.608H523.217V264.595H518.126ZM517.476 263.946H523.866V267.257H517.476V263.946Z" fill="#08104F"/>
<path d="M508.156 264.595V266.608H513.248V264.595H508.156ZM507.507 263.946H513.897V267.257H507.507V263.946Z" fill="#08104F"/>
<path d="M498.185 264.595V266.608H503.277V264.595H498.185ZM497.536 263.946H503.926V267.257H497.536V263.946Z" fill="#08104F"/>
<path d="M488.212 264.595V266.608H493.304V264.595H488.212ZM487.563 263.946H493.953V267.257H487.563V263.946Z" fill="#08104F"/>
<path d="M478.241 264.595V266.608H483.335V264.595H478.241ZM477.592 263.946H483.984V267.257H477.592V263.946Z" fill="#08104F"/>
<path d="M468.27 264.595V266.608H473.362V264.595H468.27ZM467.621 263.946H474.011V267.257H467.621V263.946Z" fill="#08104F"/>
<path d="M458.299 264.595V266.608H463.391V264.595H458.299ZM457.651 263.946H464.04V267.257H457.651V263.946Z" fill="#08104F"/>
<path d="M448.328 264.595V266.608H453.42V264.595H448.328ZM447.679 263.946H454.069V267.257H447.679V263.946Z" fill="#08104F"/>
<path d="M518.126 276.42V278.433H523.217V276.42H518.126ZM517.476 275.771H523.866V279.082H517.476V275.771Z" fill="#08104F"/>
<path d="M508.156 276.42V278.433H513.248V276.42H508.156ZM507.507 275.771H513.897V279.082H507.507V275.771Z" fill="#08104F"/>
<path d="M498.185 276.42V278.433H503.277V276.42H498.185ZM497.536 275.771H503.926V279.082H497.536V275.771Z" fill="#08104F"/>
<path d="M488.212 276.42V278.433H493.304V276.42H488.212ZM487.563 275.771H493.953V279.082H487.563V275.771Z" fill="#08104F"/>
<path d="M478.241 276.42V278.433H483.335V276.42H478.241ZM477.592 275.771H483.984V279.082H477.592V275.771Z" fill="#08104F"/>
<path d="M468.27 276.42V278.433H473.362V276.42H468.27ZM467.621 275.771H474.011V279.082H467.621V275.771Z" fill="#08104F"/>
<path d="M458.299 276.42V278.433H463.391V276.42H458.299ZM457.651 275.771H464.04V279.082H457.651V275.771Z" fill="#08104F"/>
<path d="M448.328 276.42V278.433H453.42V276.42H448.328ZM447.679 275.771H454.069V279.082H447.679V275.771Z" fill="#08104F"/>
<path d="M518.126 288.246V290.258H523.217V288.246H518.126ZM517.476 287.598H523.866V290.907H517.476V287.598Z" fill="#08104F"/>
<path d="M508.156 288.246V290.258H513.248V288.246H508.156ZM507.507 287.598H513.897V290.907H507.507V287.598Z" fill="#08104F"/>
<path d="M498.185 288.246V290.258H503.277V288.246H498.185ZM497.536 287.598H503.926V290.907H497.536V287.598Z" fill="#08104F"/>
<path d="M488.212 288.246V290.258H493.304V288.246H488.212ZM487.563 287.598H493.953V290.907H487.563V287.598Z" fill="#08104F"/>
<path d="M478.241 288.246V290.258H483.335V288.246H478.241ZM477.592 287.598H483.984V290.907H477.592V287.598Z" fill="#08104F"/>
<path d="M468.27 288.246V290.258H473.362V288.246H468.27ZM467.621 287.598H474.011V290.907H467.621V287.598Z" fill="#08104F"/>
<path d="M458.299 288.246V290.258H463.391V288.246H458.299ZM457.651 287.598H464.04V290.907H457.651V287.598Z" fill="#08104F"/>
<path d="M448.328 288.246V290.258H453.42V288.246H448.328ZM447.679 287.598H454.069V290.907H447.679V287.598Z" fill="#08104F"/>
<path d="M512.238 204.719V207.795H515.317V204.719H512.238ZM511.589 204.07H515.965V208.444H511.589V204.07Z" fill="#08104F"/>
<path d="M505.238 204.719V207.795H508.316V204.719H505.238ZM504.589 204.07H508.964V208.444H504.589V204.07Z" fill="#08104F"/>
<path d="M498.237 204.719V207.795H501.314V204.719H498.237ZM497.588 204.07H501.963V208.444H497.588V204.07Z" fill="#08104F"/>
<path d="M491.236 204.719V207.795H494.314V204.719H491.236ZM490.587 204.07H494.963V208.444H490.587V204.07Z" fill="#08104F"/>
<path d="M484.235 204.719V207.795H487.313V204.719H484.235ZM483.586 204.07H487.961V208.444H483.586V204.07Z" fill="#08104F"/>
<path d="M477.232 204.719V207.795H480.31V204.719H477.232ZM476.583 204.07H480.959V208.444H476.583V204.07Z" fill="#08104F"/>
<path d="M470.23 204.719V207.795H473.307V204.719H470.23ZM469.581 204.07H473.956V208.444H469.581V204.07Z" fill="#08104F"/>
<path d="M463.229 204.719V207.795H466.308V204.719H463.229ZM462.58 204.07H466.958V208.444H462.58V204.07Z" fill="#08104F"/>
<path d="M456.231 204.719V207.795H459.307V204.719H456.231ZM455.582 204.07H459.957V208.444H455.582V204.07Z" fill="#08104F"/>
<path d="M389.395 167.277C388.327 177.216 376.465 285.986 375.736 292.615C374.454 304.354 373.505 312.916 373.2 315.627H439.049V167.277H389.395ZM388.812 166.628H439.699V316.275H372.473C372.635 314.87 373.654 305.704 375.091 292.545V292.534C375.649 287.466 388.276 171.707 388.812 166.628Z" fill="#08104F"/>
<path d="M389.697 176.871L389.594 177.752H439.05V176.871H389.697ZM389.118 176.222H439.699V178.401H388.865L389.118 176.222Z" fill="#08104F"/>
<path d="M388.002 191.13L387.896 192.011H439.05V191.13H388.002ZM387.426 190.481H439.699V192.66H387.164L387.426 190.481Z" fill="#08104F"/>
<path d="M386.31 205.376L386.204 206.258H439.05V205.376H386.31ZM385.735 204.727H439.699V206.907H385.473L385.735 204.727Z" fill="#08104F"/>
<path d="M384.614 219.634L384.512 220.518H439.05V219.634H384.614ZM384.035 218.985H439.699V221.167H383.784L384.035 218.985Z" fill="#08104F"/>
<path d="M382.92 233.883L382.814 234.764H439.05V233.883H382.92ZM382.344 233.234H439.699V235.413H382.082L382.344 233.234Z" fill="#08104F"/>
<path d="M381.23 248.14L381.126 249.023H439.05V248.14H381.23ZM380.653 247.491H439.699V249.671H380.395L380.653 247.491Z" fill="#08104F"/>
<path d="M379.531 262.388L379.43 263.271H439.049V262.388H379.531ZM378.952 261.74H439.699V263.919H378.702L378.952 261.74Z" fill="#08104F"/>
<path d="M377.837 276.635L377.732 277.517H439.05V276.635H377.837ZM377.261 275.986H439.699V278.165H377.001L377.261 275.986Z" fill="#08104F"/>
<path d="M376.148 290.892L376.043 291.775H439.05V290.892H376.148ZM375.573 290.244H439.699V292.424H375.31L375.573 290.244Z" fill="#08104F"/>
<path d="M374.447 305.141L374.347 306.023H439.05V305.141H374.447ZM373.867 304.493H439.699V306.672H373.621L373.867 304.493Z" fill="#08104F"/>
<g opacity="0.2">
<path d="M388.891 171.962L387.906 180.98L386.168 196.901L439.05 241.346V214.121L388.891 171.962ZM388.377 170.683L439.699 213.819V242.739L385.485 197.174C386.782 185.314 387.818 175.774 388.377 170.683Z" fill="#08104F"/>
</g>
<g opacity="0.2">
<path d="M375.604 293.823C374.389 304.94 373.495 313.009 373.2 315.627H401.56L375.604 293.823ZM375.09 292.544L403.341 316.275H372.473C372.635 314.87 373.654 305.703 375.09 292.544Z" fill="#08104F"/>
</g>
<g opacity="0.2">
<path d="M385.059 207.108L384.598 211.335C384.169 215.274 383.724 219.351 383.266 223.508L439.05 270.395V252.47L385.059 207.108ZM384.546 205.829L439.699 252.167V271.788L382.583 223.781C383.27 217.557 383.925 211.507 384.546 205.829Z" fill="#08104F"/>
</g>
<g opacity="0.2">
<path d="M382.007 235.133L381.332 241.334L380.954 244.808L439.05 293.637V283.078L382.007 235.133ZM381.493 233.854L439.699 282.777V295.03L380.271 245.082C380.677 241.345 381.091 237.583 381.493 233.854Z" fill="#08104F"/>
</g>
<path d="M373.122 154.633V305.329C374.676 292.266 377.395 269.382 380.187 245.895C384.548 209.193 389.084 171.02 389.614 166.628V154.633L373.122 154.633ZM372.473 153.984H390.263V166.628C389.232 175.261 373.262 309.678 372.473 316.275V153.984Z" fill="#08104F"/>
<path d="M439.05 222.372C430.87 228.482 421.631 241.872 421.631 271.169V315.627H439.05V222.372ZM439.699 221.111V316.276H420.982V271.169C420.982 239.862 431.596 226.649 439.699 221.111Z" fill="#08104F"/>
<path d="M58.804 139.217V315.627H95.526V139.217H58.804ZM58.1551 138.568H96.175V316.276H58.1551V138.568Z" fill="#08104F"/>
<path d="M62.6447 142.023V312.823H64.5818V142.023H62.6447ZM61.9957 141.375H65.2307V313.472H61.9957V141.375Z" fill="#08104F"/>
<path d="M68.5462 142.023V143.035H95.5264V142.023H68.5462ZM67.8972 141.375H96.1757V143.684H67.8972V141.375Z" fill="#08104F"/>
<path d="M68.5462 147.502V148.514H95.5264V147.502H68.5462ZM67.8972 146.854H96.1757V149.163H67.8972V146.854Z" fill="#08104F"/>
<path d="M68.5462 152.98V153.991H95.5264V152.98H68.5462ZM67.8972 152.332H96.1757V154.64H67.8972V152.332Z" fill="#08104F"/>
<path d="M68.5462 158.458V159.47H95.5264V158.458H68.5462ZM67.8972 157.81H96.1757V160.119H67.8972V157.81Z" fill="#08104F"/>
<path d="M68.5462 163.937V164.948H95.5264V163.937H68.5462ZM67.8972 163.288H96.1757V165.597H67.8972V163.288Z" fill="#08104F"/>
<path d="M68.5462 169.405V170.417H95.5264V169.405H68.5462ZM67.8972 168.756H96.1757V171.066H67.8972V168.756Z" fill="#08104F"/>
<path d="M68.5462 174.884V175.894H95.5264V174.884H68.5462ZM67.8972 174.235H96.1757V176.543H67.8972V174.235Z" fill="#08104F"/>
<path d="M68.5462 180.361V181.373H95.5264V180.361H68.5462ZM67.8972 179.712H96.1757V182.022H67.8972V179.712Z" fill="#08104F"/>
<path d="M68.5462 185.84V186.852H95.5264V185.84H68.5462ZM67.8972 185.191H96.1757V187.501H67.8972V185.191Z" fill="#08104F"/>
<path d="M68.5462 191.317V192.329H95.5264V191.317H68.5462ZM67.8972 190.668H96.1757V192.978H67.8972V190.668Z" fill="#08104F"/>
<path d="M68.5462 196.796V197.809H95.5264V196.796H68.5462ZM67.8972 196.147H96.1757V198.457H67.8972V196.147Z" fill="#08104F"/>
<path d="M68.5462 202.273V203.285H95.5264V202.273H68.5462ZM67.8972 201.625H96.1757V203.934H67.8972V201.625Z" fill="#08104F"/>
<path d="M68.5462 207.75V208.763H95.5264V207.75H68.5462ZM67.8972 207.102H96.1757V209.412H67.8972V207.102Z" fill="#08104F"/>
<path d="M68.5462 213.229V214.241H95.5264V213.229H68.5462ZM67.8972 212.581H96.1757V214.89H67.8972V212.581Z" fill="#08104F"/>
<path d="M68.5462 218.697V219.711H95.5264V218.697H68.5462ZM67.8972 218.048H96.1757V220.36H67.8972V218.048Z" fill="#08104F"/>
<path d="M68.5462 224.176V225.187H95.5264V224.176H68.5462ZM67.8972 223.528H96.1757V225.836H67.8972V223.528Z" fill="#08104F"/>
<path d="M68.5462 229.655V230.665H95.5264V229.655H68.5462ZM67.8972 229.006H96.1757V231.314H67.8972V229.006Z" fill="#08104F"/>
<path d="M68.5462 235.132V236.145H95.5264V235.132H68.5462ZM67.8972 234.483H96.1757V236.793H67.8972V234.483Z" fill="#08104F"/>
<path d="M68.5462 240.611V241.621H95.5264V240.611H68.5462ZM67.8972 239.962H96.1757V242.27H67.8972V239.962Z" fill="#08104F"/>
<path d="M68.5462 246.088V247.1H95.5264V246.088H68.5462ZM67.8972 245.439H96.1757V247.749H67.8972V245.439Z" fill="#08104F"/>
<path d="M68.5462 251.567V252.578H95.5264V251.567H68.5462ZM67.8972 250.918H96.1757V253.226H67.8972V250.918Z" fill="#08104F"/>
<path d="M68.5462 257.044V258.056H95.5264V257.044H68.5462ZM67.8972 256.396H96.1757V258.705H67.8972V256.396Z" fill="#08104F"/>
<path d="M68.5462 262.523V263.535H95.5264V262.523H68.5462ZM67.8972 261.874H96.1757V264.184H67.8972V261.874Z" fill="#08104F"/>
<path d="M68.5462 267.991V269.003H95.5264V267.991H68.5462ZM67.8972 267.342H96.1757V269.652H67.8972V267.342Z" fill="#08104F"/>
<path d="M68.5462 273.47V274.482H95.5264V273.47H68.5462ZM67.8972 272.821H96.1757V275.131H67.8972V272.821Z" fill="#08104F"/>
<path d="M68.5462 278.946V279.959H95.5264V278.946H68.5462ZM67.8972 278.298H96.1757V280.608H67.8972V278.298Z" fill="#08104F"/>
<path d="M68.5462 284.426V285.438H95.5264V284.426H68.5462ZM67.8972 283.777H96.1757V286.087H67.8972V283.777Z" fill="#08104F"/>
<path d="M68.5462 289.903V290.915H95.5264V289.903H68.5462ZM67.8972 289.254H96.1757V291.564H67.8972V289.254Z" fill="#08104F"/>
<path d="M68.5462 295.38V296.393H95.5264V295.38H68.5462ZM67.8972 294.731H96.1757V297.042H67.8972V294.731Z" fill="#08104F"/>
<path d="M68.5462 300.859V301.872H95.5264V300.859H68.5462ZM67.8972 300.21H96.1757V302.52H67.8972V300.21Z" fill="#08104F"/>
<path d="M68.5462 306.338V307.349H95.5264V306.338H68.5462ZM67.8972 305.689H96.1757V307.998H67.8972V305.689Z" fill="#08104F"/>
<path d="M68.5462 311.807V312.819H95.5264V311.807H68.5462ZM67.8972 311.158H96.1757V313.468H67.8972V311.158Z" fill="#08104F"/>
<path d="M100.413 88.6042V315.627H143.395V88.6042H100.413ZM99.7638 87.9556H144.044V316.275H99.7638V87.9556Z" fill="#08104F"/>
<path d="M138.411 91.4929V94.4413H141.355V91.4929H138.411ZM137.762 90.8442H142.004V95.09H137.762V90.8442Z" fill="#08104F"/>
<path d="M131.217 91.4929V94.4413H134.165V91.4929H131.217ZM130.568 90.8442H134.814V95.09H130.568V90.8442Z" fill="#08104F"/>
<path d="M124.029 91.4929V94.4413H126.975V91.4929H124.029ZM123.38 90.8442H127.624V95.09H123.38V90.8442Z" fill="#08104F"/>
<path d="M116.839 91.4929V94.4413H119.783V91.4929H116.839ZM116.19 90.8442H120.432V95.09H116.19V90.8442Z" fill="#08104F"/>
<path d="M109.646 91.4929V94.4413H112.595V91.4929H109.646ZM108.997 90.8442H113.244V95.09H108.997V90.8442Z" fill="#08104F"/>
<path d="M102.456 91.4929V94.4413H105.402V91.4929H102.456ZM101.807 90.8442H106.051V95.09H101.807V90.8442Z" fill="#08104F"/>
<path d="M138.411 97.5588V100.503H141.355V97.5588H138.411ZM137.762 96.9102H142.004V101.152H137.762V96.9102Z" fill="#08104F"/>
<path d="M131.217 97.5588V100.503H134.165V97.5588H131.217ZM130.568 96.9102H134.814V101.152H130.568V96.9102Z" fill="#08104F"/>
<path d="M124.029 97.5588V100.503H126.971V97.5588H124.029ZM123.38 96.9102H127.62V101.152H123.38V96.9102Z" fill="#08104F"/>
<path d="M116.839 97.5588V100.503H119.783V97.5588H116.839ZM116.19 96.9102H120.432V101.152H116.19V96.9102Z" fill="#08104F"/>
<path d="M109.646 97.5588V100.503H112.595V97.5588H109.646ZM108.997 96.9102H113.244V101.152H108.997V96.9102Z" fill="#08104F"/>
<path d="M102.456 97.5588V100.503H105.402V97.5588H102.456ZM101.807 96.9102H106.051V101.152H101.807V96.9102Z" fill="#08104F"/>
<path d="M138.411 103.62V106.567H141.355V103.62H138.411ZM137.762 102.972H142.004V107.216H137.762V102.972Z" fill="#08104F"/>
<path d="M131.217 103.62V106.567H134.167V103.62H131.217ZM130.568 102.972H134.816V107.216H130.568V102.972Z" fill="#08104F"/>
<path d="M124.029 103.62V106.567H126.975V103.62H124.029ZM123.38 102.972H127.624V107.216H123.38V102.972Z" fill="#08104F"/>
<path d="M116.839 103.62V106.567H119.783V103.62H116.839ZM116.19 102.972H120.432V107.216H116.19V102.972Z" fill="#08104F"/>
<path d="M109.646 103.62V106.567H112.595V103.62H109.646ZM108.997 102.972H113.244V107.216H108.997V102.972Z" fill="#08104F"/>
<path d="M102.458 103.62V106.567H105.402V103.62H102.458ZM101.809 102.972H106.051V107.216H101.809V102.972Z" fill="#08104F"/>
<path d="M138.411 109.684V112.631H141.355V109.684H138.411ZM137.762 109.036H142.004V113.28H137.762V109.036Z" fill="#08104F"/>
<path d="M131.217 109.684V112.631H134.165V109.684H131.217ZM130.568 109.036H134.814V113.28H130.568V109.036Z" fill="#08104F"/>
<path d="M124.029 109.684V112.631H126.975V109.684H124.029ZM123.38 109.036H127.624V113.28H123.38V109.036Z" fill="#08104F"/>
<path d="M116.839 109.684V112.631H119.783V109.684H116.839ZM116.19 109.036H120.432V113.28H116.19V109.036Z" fill="#08104F"/>
<path d="M109.646 109.684V112.631H112.595V109.684H109.646ZM108.997 109.036H113.244V113.28H108.997V109.036Z" fill="#08104F"/>
<path d="M102.456 109.684V112.631H105.402V109.684H102.456ZM101.807 109.036H106.051V113.28H101.807V109.036Z" fill="#08104F"/>
<path d="M138.411 115.748V118.694H141.355V115.748H138.411ZM137.762 115.1H142.004V119.343H137.762V115.1Z" fill="#08104F"/>
<path d="M131.217 115.748V118.694H134.165V115.748H131.217ZM130.568 115.1H134.814V119.343H130.568V115.1Z" fill="#08104F"/>
<path d="M124.029 115.748V118.694H126.975V115.748H124.029ZM123.38 115.1H127.624V119.343H123.38V115.1Z" fill="#08104F"/>
<path d="M116.839 115.748V118.694H119.783V115.748H116.839ZM116.19 115.1H120.432V119.343H116.19V115.1Z" fill="#08104F"/>
<path d="M109.646 115.748V118.694H112.595V115.748H109.646ZM108.997 115.1H113.244V119.343H108.997V115.1Z" fill="#08104F"/>
<path d="M102.456 115.748V118.694H105.402V115.748H102.456ZM101.807 115.1H106.051V119.343H101.807V115.1Z" fill="#08104F"/>
<path d="M138.411 121.813V124.759H141.355V121.813H138.411ZM137.762 121.165H142.004V125.408H137.762V121.165Z" fill="#08104F"/>
<path d="M131.217 121.813V124.759H134.165V121.813H131.217ZM130.568 121.165H134.814V125.408H130.568V121.165Z" fill="#08104F"/>
<path d="M124.029 121.813V124.759H126.975V121.813H124.029ZM123.38 121.165H127.624V125.408H123.38V121.165Z" fill="#08104F"/>
<path d="M116.839 121.813V124.759H119.783V121.813H116.839ZM116.19 121.165H120.432V125.408H116.19V121.165Z" fill="#08104F"/>
<path d="M109.646 121.813V124.759H112.595V121.813H109.646ZM108.997 121.165H113.244V125.408H108.997V121.165Z" fill="#08104F"/>
<path d="M102.456 121.813V124.759H105.402V121.813H102.456ZM101.807 121.165H106.051V125.408H101.807V121.165Z" fill="#08104F"/>
<path d="M138.411 127.877V130.823H141.355V127.877H138.411ZM137.762 127.229H142.004V131.472H137.762V127.229Z" fill="#08104F"/>
<path d="M131.217 127.877V130.823H134.165V127.877H131.217ZM130.568 127.229H134.814V131.472H130.568V127.229Z" fill="#08104F"/>
<path d="M124.029 127.877V130.823H126.975V127.877H124.029ZM123.38 127.229H127.624V131.472H123.38V127.229Z" fill="#08104F"/>
<path d="M116.839 127.877V130.823H119.783V127.877H116.839ZM116.19 127.229H120.432V131.472H116.19V127.229Z" fill="#08104F"/>
<path d="M109.646 127.877V130.823H112.595V127.877H109.646ZM108.997 127.229H113.244V131.472H108.997V127.229Z" fill="#08104F"/>
<path d="M102.456 127.877V130.823H105.402V127.877H102.456ZM101.807 127.229H106.051V131.472H101.807V127.229Z" fill="#08104F"/>
<path d="M138.411 133.939V136.887H141.355V133.939H138.411ZM137.762 133.29H142.004V137.536H137.762V133.29Z" fill="#08104F"/>
<path d="M131.217 133.939V136.887H134.165V133.939H131.217ZM130.568 133.29H134.814V137.536H130.568V133.29Z" fill="#08104F"/>
<path d="M124.029 133.939V136.887H126.975V133.939H124.029ZM123.38 133.29H127.624V137.536H123.38V133.29Z" fill="#08104F"/>
<path d="M116.839 133.939V136.887H119.783V133.939H116.839ZM116.19 133.29H120.432V137.536H116.19V133.29Z" fill="#08104F"/>
<path d="M109.646 133.939V136.887H112.595V133.939H109.646ZM108.997 133.29H113.244V137.536H108.997V133.29Z" fill="#08104F"/>
<path d="M102.456 133.939V136.887H105.402V133.939H102.456ZM101.807 133.29H106.051V137.536H101.807V133.29Z" fill="#08104F"/>
<path d="M138.411 140.005V142.952H141.355V140.005H138.411ZM137.762 139.356H142.004V143.601H137.762V139.356Z" fill="#08104F"/>
<path d="M131.217 140.005V142.952H134.165V140.005H131.217ZM130.568 139.356H134.814V143.601H130.568V139.356Z" fill="#08104F"/>
<path d="M124.029 140.005V142.952H126.975V140.005H124.029ZM123.38 139.356H127.624V143.601H123.38V139.356Z" fill="#08104F"/>
<path d="M116.839 140.005V142.952H119.783V140.005H116.839ZM116.19 139.356H120.432V143.601H116.19V139.356Z" fill="#08104F"/>
<path d="M109.646 140.005V142.952H112.595V140.005H109.646ZM108.997 139.356H113.244V143.601H108.997V139.356Z" fill="#08104F"/>
<path d="M102.456 140.005V142.952H105.402V140.005H102.456ZM101.807 139.356H106.051V143.601H101.807V139.356Z" fill="#08104F"/>
<path d="M138.411 146.069V149.014H141.355V146.069H138.411ZM137.762 145.42H142.004V149.662H137.762V145.42Z" fill="#08104F"/>
<path d="M131.217 146.069V149.014H134.165V146.069H131.217ZM130.568 145.42H134.814V149.662H130.568V145.42Z" fill="#08104F"/>
<path d="M124.029 146.069V149.014H126.975V146.069H124.029ZM123.38 145.42H127.624V149.662H123.38V145.42Z" fill="#08104F"/>
<path d="M116.839 146.069V149.014H119.783V146.069H116.839ZM116.19 145.42H120.432V149.662H116.19V145.42Z" fill="#08104F"/>
<path d="M109.646 146.069V149.014H112.595V146.069H109.646ZM108.997 145.42H113.244V149.662H108.997V145.42Z" fill="#08104F"/>
<path d="M102.456 146.069V149.014H105.402V146.069H102.456ZM101.807 145.42H106.051V149.662H101.807V145.42Z" fill="#08104F"/>
<path d="M138.411 152.133V155.078H141.355V152.133H138.411ZM137.762 151.484H142.004V155.726H137.762V151.484Z" fill="#08104F"/>
<path d="M131.217 152.133V155.078H134.165V152.133H131.217ZM130.568 151.484H134.814V155.726H130.568V151.484Z" fill="#08104F"/>
<path d="M124.029 152.133V155.078H126.975V152.133H124.029ZM123.38 151.484H127.624V155.726H123.38V151.484Z" fill="#08104F"/>
<path d="M116.839 152.133V155.078H119.783V152.133H116.839ZM116.19 151.484H120.432V155.726H116.19V151.484Z" fill="#08104F"/>
<path d="M109.646 152.133V155.078H112.595V152.133H109.646ZM108.997 151.484H113.244V155.726H108.997V151.484Z" fill="#08104F"/>
<path d="M102.456 152.133V155.078H105.402V152.133H102.456ZM101.807 151.484H106.051V155.726H101.807V151.484Z" fill="#08104F"/>
<path d="M138.411 158.195V161.144H141.355V158.195H138.411ZM137.762 157.546H142.004V161.793H137.762V157.546Z" fill="#08104F"/>
<path d="M131.217 158.195V161.144H134.165V158.195H131.217ZM130.568 157.546H134.814V161.793H130.568V157.546Z" fill="#08104F"/>
<path d="M124.029 158.195V161.144H126.975V158.195H124.029ZM123.38 157.546H127.624V161.793H123.38V157.546Z" fill="#08104F"/>
<path d="M116.839 158.195V161.144H119.783V158.195H116.839ZM116.19 157.546H120.432V161.793H116.19V157.546Z" fill="#08104F"/>
<path d="M109.646 158.195V161.144H112.595V158.195H109.646ZM108.997 157.546H113.244V161.793H108.997V157.546Z" fill="#08104F"/>
<path d="M102.456 158.195V161.144H105.402V158.195H102.456ZM101.807 157.546H106.051V161.793H101.807V157.546Z" fill="#08104F"/>
<path d="M138.411 164.26V167.208H141.355V164.26H138.411ZM137.762 163.612H142.004V167.856H137.762V163.612Z" fill="#08104F"/>
<path d="M131.217 164.26V167.208H134.165V164.26H131.217ZM130.568 163.612H134.814V167.856H130.568V163.612Z" fill="#08104F"/>
<path d="M124.029 164.26V167.208H126.975V164.26H124.029ZM123.38 163.612H127.624V167.856H123.38V163.612Z" fill="#08104F"/>
<path d="M116.839 164.26V167.208H119.783V164.26H116.839ZM116.19 163.612H120.432V167.856H116.19V163.612Z" fill="#08104F"/>
<path d="M109.646 164.26V167.208H112.595V164.26H109.646ZM108.997 163.612H113.244V167.856H108.997V163.612Z" fill="#08104F"/>
<path d="M102.456 164.26V167.208H105.402V164.26H102.456ZM101.807 163.612H106.051V167.856H101.807V163.612Z" fill="#08104F"/>
<path d="M138.411 170.323V173.269H141.355V170.323H138.411ZM137.762 169.674H142.004V173.918H137.762V169.674Z" fill="#08104F"/>
<path d="M131.217 170.323V173.269H134.165V170.323H131.217ZM130.568 169.674H134.814V173.918H130.568V169.674Z" fill="#08104F"/>
<path d="M124.029 170.323V173.269H126.975V170.323H124.029ZM123.38 169.674H127.624V173.918H123.38V169.674Z" fill="#08104F"/>
<path d="M116.839 170.323V173.269H119.783V170.323H116.839ZM116.19 169.674H120.432V173.918H116.19V169.674Z" fill="#08104F"/>
<path d="M109.646 170.323V173.269H112.595V170.323H109.646ZM108.997 169.674H113.244V173.918H108.997V169.674Z" fill="#08104F"/>
<path d="M102.456 170.323V173.269H105.402V170.323H102.456ZM101.807 169.674H106.051V173.918H101.807V169.674Z" fill="#08104F"/>
<path d="M138.411 176.388V179.333H141.355V176.388H138.411ZM137.762 175.74H142.004V179.982H137.762V175.74Z" fill="#08104F"/>
<path d="M131.217 176.388V179.333H134.165V176.388H131.217ZM130.568 175.74H134.814V179.982H130.568V175.74Z" fill="#08104F"/>
<path d="M124.029 176.388V179.333H126.975V176.388H124.029ZM123.38 175.74H127.624V179.982H123.38V175.74Z" fill="#08104F"/>
<path d="M116.839 176.388V179.333H119.783V176.388H116.839ZM116.19 175.74H120.432V179.982H116.19V175.74Z" fill="#08104F"/>
<path d="M109.646 176.388V179.333H112.595V176.388H109.646ZM108.997 175.74H113.244V179.982H108.997V175.74Z" fill="#08104F"/>
<path d="M102.456 176.388V179.333H105.402V176.388H102.456ZM101.807 175.74H106.051V179.982H101.807V175.74Z" fill="#08104F"/>
<path d="M138.411 182.452V185.398H141.355V182.452H138.411ZM137.762 181.804H142.004V186.047H137.762V181.804Z" fill="#08104F"/>
<path d="M131.217 182.452V185.398H134.165V182.452H131.217ZM130.568 181.804H134.814V186.047H130.568V181.804Z" fill="#08104F"/>
<path d="M124.029 182.452V185.398H126.975V182.452H124.029ZM123.38 181.804H127.624V186.047H123.38V181.804Z" fill="#08104F"/>
<path d="M116.839 182.452V185.398H119.783V182.452H116.839ZM116.19 181.804H120.432V186.047H116.19V181.804Z" fill="#08104F"/>
<path d="M109.646 182.452V185.398H112.595V182.452H109.646ZM108.997 181.804H113.244V186.047H108.997V181.804Z" fill="#08104F"/>
<path d="M102.456 182.452V185.398H105.402V182.452H102.456ZM101.807 181.804H106.051V186.047H101.807V181.804Z" fill="#08104F"/>
<path d="M138.411 188.515V191.461H141.355V188.515H138.411ZM137.762 187.866H142.004V192.109H137.762V187.866Z" fill="#08104F"/>
<path d="M131.217 188.515V191.461H134.165V188.515H131.217ZM130.568 187.866H134.814V192.109H130.568V187.866Z" fill="#08104F"/>
<path d="M124.029 188.515V191.461H126.975V188.515H124.029ZM123.38 187.866H127.624V192.109H123.38V187.866Z" fill="#08104F"/>
<path d="M116.839 188.515V191.461H119.783V188.515H116.839ZM116.19 187.866H120.432V192.109H116.19V187.866Z" fill="#08104F"/>
<path d="M109.646 188.515V191.461H112.595V188.515H109.646ZM108.997 187.866H113.244V192.109H108.997V187.866Z" fill="#08104F"/>
<path d="M102.456 188.515V191.461H105.402V188.515H102.456ZM101.807 187.866H106.051V192.109H101.807V187.866Z" fill="#08104F"/>
<path d="M138.411 194.579V197.526H141.355V194.579H138.411ZM137.762 193.93H142.004V198.175H137.762V193.93Z" fill="#08104F"/>
<path d="M131.217 194.579V197.526H134.165V194.579H131.217ZM130.568 193.93H134.814V198.175H130.568V193.93Z" fill="#08104F"/>
<path d="M124.029 194.579V197.526H126.975V194.579H124.029ZM123.38 193.93H127.624V198.175H123.38V193.93Z" fill="#08104F"/>
<path d="M116.839 194.579V197.526H119.783V194.579H116.839ZM116.19 193.93H120.432V198.175H116.19V193.93Z" fill="#08104F"/>
<path d="M109.646 194.579V197.526H112.595V194.579H109.646ZM108.997 193.93H113.244V198.175H108.997V193.93Z" fill="#08104F"/>
<path d="M102.456 194.579V197.526H105.402V194.579H102.456ZM101.807 193.93H106.051V198.175H101.807V193.93Z" fill="#08104F"/>
<path d="M138.411 200.645V203.59H141.355V200.645H138.411ZM137.762 199.996H142.004V204.239H137.762V199.996Z" fill="#08104F"/>
<path d="M131.217 200.645V203.59H134.165V200.645H131.217ZM130.568 199.996H134.814V204.239H130.568V199.996Z" fill="#08104F"/>
<path d="M124.029 200.645V203.59H126.975V200.645H124.029ZM123.38 199.996H127.624V204.239H123.38V199.996Z" fill="#08104F"/>
<path d="M116.839 200.645V203.59H119.783V200.645H116.839ZM116.19 199.996H120.432V204.239H116.19V199.996Z" fill="#08104F"/>
<path d="M109.646 200.645V203.59H112.595V200.645H109.646ZM108.997 199.996H113.244V204.239H108.997V199.996Z" fill="#08104F"/>
<path d="M102.456 200.645V203.59H105.402V200.645H102.456ZM101.807 199.996H106.051V204.239H101.807V199.996Z" fill="#08104F"/>
<path d="M138.411 206.705V209.653H141.355V206.705H138.411ZM137.762 206.057H142.004V210.301H137.762V206.057Z" fill="#08104F"/>
<path d="M131.217 206.705V209.653H134.165V206.705H131.217ZM130.568 206.057H134.814V210.301H130.568V206.057Z" fill="#08104F"/>
<path d="M124.029 206.705V209.653H126.975V206.705H124.029ZM123.38 206.057H127.624V210.301H123.38V206.057Z" fill="#08104F"/>
<path d="M116.839 206.705V209.653H119.783V206.705H116.839ZM116.19 206.057H120.432V210.301H116.19V206.057Z" fill="#08104F"/>
<path d="M109.646 206.705V209.653H112.595V206.705H109.646ZM108.997 206.057H113.244V210.301H108.997V206.057Z" fill="#08104F"/>
<path d="M102.456 206.705V209.653H105.402V206.705H102.456ZM101.807 206.057H106.051V210.301H101.807V206.057Z" fill="#08104F"/>
<path d="M138.411 212.772V215.717H141.355V212.772H138.411ZM137.762 212.123H142.004V216.365H137.762V212.123Z" fill="#08104F"/>
<path d="M131.217 212.772V215.717H134.165V212.772H131.217ZM130.568 212.123H134.814V216.365H130.568V212.123Z" fill="#08104F"/>
<path d="M124.029 212.772V215.717H126.975V212.772H124.029ZM123.38 212.123H127.624V216.365H123.38V212.123Z" fill="#08104F"/>
<path d="M116.839 212.772V215.717H119.783V212.772H116.839ZM116.19 212.123H120.432V216.365H116.19V212.123Z" fill="#08104F"/>
<path d="M109.646 212.772V215.717H112.595V212.772H109.646ZM108.997 212.123H113.244V216.365H108.997V212.123Z" fill="#08104F"/>
<path d="M102.456 212.772V215.717H105.402V212.772H102.456ZM101.807 212.123H106.051V216.365H101.807V212.123Z" fill="#08104F"/>
<path d="M138.411 218.836V221.78H141.355V218.836H138.411ZM137.762 218.187H142.004V222.429H137.762V218.187Z" fill="#08104F"/>
<path d="M131.217 218.836V221.78H134.165V218.836H131.217ZM130.568 218.187H134.814V222.429H130.568V218.187Z" fill="#08104F"/>
<path d="M124.029 218.836V221.78H126.975V218.836H124.029ZM123.38 218.187H127.624V222.429H123.38V218.187Z" fill="#08104F"/>
<path d="M116.839 218.836V221.78H119.783V218.836H116.839ZM116.19 218.187H120.432V222.429H116.19V218.187Z" fill="#08104F"/>
<path d="M109.646 218.836V221.78H112.595V218.836H109.646ZM108.997 218.187H113.244V222.429H108.997V218.187Z" fill="#08104F"/>
<path d="M102.456 218.836V221.78H105.402V218.836H102.456ZM101.807 218.187H106.051V222.429H101.807V218.187Z" fill="#08104F"/>
<path d="M138.411 224.897V227.844H141.355V224.897H138.411ZM137.762 224.249H142.004V228.493H137.762V224.249Z" fill="#08104F"/>
<path d="M131.217 224.897V227.844H134.165V224.897H131.217ZM130.568 224.249H134.814V228.493H130.568V224.249Z" fill="#08104F"/>
<path d="M124.029 224.897V227.844H126.975V224.897H124.029ZM123.38 224.249H127.624V228.493H123.38V224.249Z" fill="#08104F"/>
<path d="M116.839 224.897V227.844H119.783V224.897H116.839ZM116.19 224.249H120.432V228.493H116.19V224.249Z" fill="#08104F"/>
<path d="M109.646 224.897V227.844H112.595V224.897H109.646ZM108.997 224.249H113.244V228.493H108.997V224.249Z" fill="#08104F"/>
<path d="M102.456 224.897V227.844H105.402V224.897H102.456ZM101.807 224.249H106.051V228.493H101.807V224.249Z" fill="#08104F"/>
<path d="M138.411 230.962V233.908H141.355V230.962H138.411ZM137.762 230.313H142.004V234.557H137.762V230.313Z" fill="#08104F"/>
<path d="M131.217 230.962V233.908H134.165V230.962H131.217ZM130.568 230.313H134.814V234.557H130.568V230.313Z" fill="#08104F"/>
<path d="M124.029 230.962V233.908H126.975V230.962H124.029ZM123.38 230.313H127.624V234.557H123.38V230.313Z" fill="#08104F"/>
<path d="M116.839 230.962V233.908H119.783V230.962H116.839ZM116.19 230.313H120.432V234.557H116.19V230.313Z" fill="#08104F"/>
<path d="M109.646 230.962V233.908H112.595V230.962H109.646ZM108.997 230.313H113.244V234.557H108.997V230.313Z" fill="#08104F"/>
<path d="M102.456 230.962V233.908H105.402V230.962H102.456ZM101.807 230.313H106.051V234.557H101.807V230.313Z" fill="#08104F"/>
<path d="M138.411 237.026V239.972H141.355V237.026H138.411ZM137.762 236.377H142.004V240.621H137.762V236.377Z" fill="#08104F"/>
<path d="M131.217 237.026V239.972H134.165V237.026H131.217ZM130.568 236.377H134.814V240.621H130.568V236.377Z" fill="#08104F"/>
<path d="M124.029 237.026V239.972H126.975V237.026H124.029ZM123.38 236.377H127.624V240.621H123.38V236.377Z" fill="#08104F"/>
<path d="M116.839 237.026V239.972H119.783V237.026H116.839ZM116.19 236.377H120.432V240.621H116.19V236.377Z" fill="#08104F"/>
<path d="M109.646 237.026V239.972H112.595V237.026H109.646ZM108.997 236.377H113.244V240.621H108.997V236.377Z" fill="#08104F"/>
<path d="M102.456 237.026V239.972H105.402V237.026H102.456ZM101.807 236.377H106.051V240.621H101.807V236.377Z" fill="#08104F"/>
<path d="M138.411 243.09V246.037H141.355V243.09H138.411ZM137.762 242.441H142.004V246.686H137.762V242.441Z" fill="#08104F"/>
<path d="M131.217 243.09V246.037H134.165V243.09H131.217ZM130.568 242.441H134.814V246.686H130.568V242.441Z" fill="#08104F"/>
<path d="M124.029 243.09V246.037H126.975V243.09H124.029ZM123.38 242.441H127.624V246.686H123.38V242.441Z" fill="#08104F"/>
<path d="M116.839 243.09V246.037H119.783V243.09H116.839ZM116.19 242.441H120.432V246.686H116.19V242.441Z" fill="#08104F"/>
<path d="M109.646 243.09V246.037H112.595V243.09H109.646ZM108.997 242.441H113.244V246.686H108.997V242.441Z" fill="#08104F"/>
<path d="M102.456 243.09V246.037H105.402V243.09H102.456ZM101.807 242.441H106.051V246.686H101.807V242.441Z" fill="#08104F"/>
<path d="M138.411 249.154V252.1H141.355V249.154H138.411ZM137.762 248.505H142.004V252.749H137.762V248.505Z" fill="#08104F"/>
<path d="M131.217 249.154V252.1H134.165V249.154H131.217ZM130.568 248.505H134.814V252.749H130.568V248.505Z" fill="#08104F"/>
<path d="M124.029 249.154V252.1H126.975V249.154H124.029ZM123.38 248.505H127.624V252.749H123.38V248.505Z" fill="#08104F"/>
<path d="M116.839 249.154V252.1H119.783V249.154H116.839ZM116.19 248.505H120.432V252.749H116.19V248.505Z" fill="#08104F"/>
<path d="M109.646 249.154V252.1H112.595V249.154H109.646ZM108.997 248.505H113.244V252.749H108.997V248.505Z" fill="#08104F"/>
<path d="M102.456 249.154V252.1H105.402V249.154H102.456ZM101.807 248.505H106.051V252.749H101.807V248.505Z" fill="#08104F"/>
<path d="M138.411 255.218V258.165H141.355V255.218H138.411ZM137.762 254.569H142.004V258.814H137.762V254.569Z" fill="#08104F"/>
<path d="M131.217 255.218V258.165H134.165V255.218H131.217ZM130.568 254.569H134.814V258.814H130.568V254.569Z" fill="#08104F"/>
<path d="M124.029 255.218V258.165H126.975V255.218H124.029ZM123.38 254.569H127.624V258.814H123.38V254.569Z" fill="#08104F"/>
<path d="M116.839 255.218V258.165H119.783V255.218H116.839ZM116.19 254.569H120.432V258.814H116.19V254.569Z" fill="#08104F"/>
<path d="M109.646 255.218V258.165H112.595V255.218H109.646ZM108.997 254.569H113.244V258.814H108.997V254.569Z" fill="#08104F"/>
<path d="M102.456 255.218V258.165H105.402V255.218H102.456ZM101.807 254.569H106.051V258.814H101.807V254.569Z" fill="#08104F"/>
<path d="M138.411 261.281V264.227H141.355V261.281H138.411ZM137.762 260.633H142.004V264.876H137.762V260.633Z" fill="#08104F"/>
<path d="M131.217 261.281V264.227H134.165V261.281H131.217ZM130.568 260.633H134.814V264.876H130.568V260.633Z" fill="#08104F"/>
<path d="M124.029 261.281V264.227H126.975V261.281H124.029ZM123.38 260.633H127.624V264.876H123.38V260.633Z" fill="#08104F"/>
<path d="M116.839 261.281V264.227H119.783V261.281H116.839ZM116.19 260.633H120.432V264.876H116.19V260.633Z" fill="#08104F"/>
<path d="M109.646 261.281V264.227H112.595V261.281H109.646ZM108.997 260.633H113.244V264.876H108.997V260.633Z" fill="#08104F"/>
<path d="M102.456 261.281V264.227H105.402V261.281H102.456ZM101.807 260.633H106.051V264.876H101.807V260.633Z" fill="#08104F"/>
<path d="M138.411 267.344V270.29H141.355V267.344H138.411ZM137.762 266.696H142.004V270.939H137.762V266.696Z" fill="#08104F"/>
<path d="M131.217 267.344V270.29H134.165V267.344H131.217ZM130.568 266.696H134.814V270.939H130.568V266.696Z" fill="#08104F"/>
<path d="M124.029 267.344V270.29H126.975V267.344H124.029ZM123.38 266.696H127.624V270.939H123.38V266.696Z" fill="#08104F"/>
<path d="M116.839 267.344V270.29H119.783V267.344H116.839ZM116.19 266.696H120.432V270.939H116.19V266.696Z" fill="#08104F"/>
<path d="M109.646 267.344V270.29H112.595V267.344H109.646ZM108.997 266.696H113.244V270.939H108.997V266.696Z" fill="#08104F"/>
<path d="M102.456 267.344V270.29H105.402V267.344H102.456ZM101.807 266.696H106.051V270.939H101.807V266.696Z" fill="#08104F"/>
<path d="M138.411 273.408V276.354H141.355V273.408H138.411ZM137.762 272.76H142.004V277.003H137.762V272.76Z" fill="#08104F"/>
<path d="M131.217 273.408V276.354H134.165V273.408H131.217ZM130.568 272.76H134.814V277.003H130.568V272.76Z" fill="#08104F"/>
<path d="M124.029 273.408V276.354H126.975V273.408H124.029ZM123.38 272.76H127.624V277.003H123.38V272.76Z" fill="#08104F"/>
<path d="M116.839 273.408V276.354H119.783V273.408H116.839ZM116.19 272.76H120.432V277.003H116.19V272.76Z" fill="#08104F"/>
<path d="M109.646 273.408V276.354H112.595V273.408H109.646ZM108.997 272.76H113.244V277.003H108.997V272.76Z" fill="#08104F"/>
<path d="M102.456 273.408V276.354H105.402V273.408H102.456ZM101.807 272.76H106.051V277.003H101.807V272.76Z" fill="#08104F"/>
<path d="M138.411 279.472V282.418H141.355V279.472H138.411ZM137.762 278.824H142.004V283.067H137.762V278.824Z" fill="#08104F"/>
<path d="M131.217 279.472V282.418H134.165V279.472H131.217ZM130.568 278.824H134.814V283.067H130.568V278.824Z" fill="#08104F"/>
<path d="M124.029 279.472V282.418H126.975V279.472H124.029ZM123.38 278.824H127.624V283.067H123.38V278.824Z" fill="#08104F"/>
<path d="M116.839 279.472V282.418H119.783V279.472H116.839ZM116.19 278.824H120.432V283.067H116.19V278.824Z" fill="#08104F"/>
<path d="M109.646 279.472V282.418H112.595V279.472H109.646ZM108.997 278.824H113.244V283.067H108.997V278.824Z" fill="#08104F"/>
<path d="M102.456 279.472V282.418H105.402V279.472H102.456ZM101.807 278.824H106.051V283.067H101.807V278.824Z" fill="#08104F"/>
<path d="M138.411 285.539V288.482H141.355V285.539H138.411ZM137.762 284.89H142.004V289.13H137.762V284.89Z" fill="#08104F"/>
<path d="M131.217 285.539V288.482H134.165V285.539H131.217ZM130.568 284.89H134.814V289.13H130.568V284.89Z" fill="#08104F"/>
<path d="M124.029 285.539V288.482H126.975V285.539H124.029ZM123.38 284.89H127.624V289.13H123.38V284.89Z" fill="#08104F"/>
<path d="M116.839 285.539V288.482H119.783V285.539H116.839ZM116.19 284.89H120.432V289.13H116.19V284.89Z" fill="#08104F"/>
<path d="M109.646 285.539V288.482H112.595V285.539H109.646ZM108.997 284.89H113.244V289.13H108.997V284.89Z" fill="#08104F"/>
<path d="M102.456 285.539V288.482H105.402V285.539H102.456ZM101.807 284.89H106.051V289.13H101.807V284.89Z" fill="#08104F"/>
<path d="M138.411 291.6V294.546H141.355V291.6H138.411ZM137.762 290.951H142.004V295.195H137.762V290.951Z" fill="#08104F"/>
<path d="M131.217 291.6V294.546H134.165V291.6H131.217ZM130.568 290.951H134.814V295.195H130.568V290.951Z" fill="#08104F"/>
<path d="M124.029 291.6V294.546H126.975V291.6H124.029ZM123.38 290.951H127.624V295.195H123.38V290.951Z" fill="#08104F"/>
<path d="M116.839 291.6V294.546H119.783V291.6H116.839ZM116.19 290.951H120.432V295.195H116.19V290.951Z" fill="#08104F"/>
<path d="M109.646 291.6V294.546H112.595V291.6H109.646ZM108.997 290.951H113.244V295.195H108.997V290.951Z" fill="#08104F"/>
<path d="M102.456 291.6V294.546H105.402V291.6H102.456ZM101.807 290.951H106.051V295.195H101.807V290.951Z" fill="#08104F"/>
<path d="M138.411 297.664V300.611H141.355V297.664H138.411ZM137.762 297.015H142.004V301.26H137.762V297.015Z" fill="#08104F"/>
<path d="M131.217 297.664V300.611H134.165V297.664H131.217ZM130.568 297.015H134.814V301.26H130.568V297.015Z" fill="#08104F"/>
<path d="M124.029 297.664V300.611H126.975V297.664H124.029ZM123.38 297.015H127.624V301.26H123.38V297.015Z" fill="#08104F"/>
<path d="M116.839 297.664V300.611H119.783V297.664H116.839ZM116.19 297.015H120.432V301.26H116.19V297.015Z" fill="#08104F"/>
<path d="M109.646 297.664V300.611H112.595V297.664H109.646ZM108.997 297.015H113.244V301.26H108.997V297.015Z" fill="#08104F"/>
<path d="M102.456 297.664V300.611H105.402V297.664H102.456ZM101.807 297.015H106.051V301.26H101.807V297.015Z" fill="#08104F"/>
<path d="M138.411 303.729V306.675H141.355V303.729H138.411ZM137.762 303.08H142.004V307.323H137.762V303.08Z" fill="#08104F"/>
<path d="M131.217 303.729V306.675H134.165V303.729H131.217ZM130.568 303.08H134.814V307.323H130.568V303.08Z" fill="#08104F"/>
<path d="M124.029 303.729V306.675H126.975V303.729H124.029ZM123.38 303.08H127.624V307.323H123.38V303.08Z" fill="#08104F"/>
<path d="M116.839 303.729V306.675H119.783V303.729H116.839ZM116.19 303.08H120.432V307.323H116.19V303.08Z" fill="#08104F"/>
<path d="M109.646 303.729V306.675H112.595V303.729H109.646ZM108.997 303.08H113.244V307.323H108.997V303.08Z" fill="#08104F"/>
<path d="M102.456 303.729V306.675H105.402V303.729H102.456ZM101.807 303.08H106.051V307.323H101.807V303.08Z" fill="#08104F"/>
<path d="M138.411 309.792V312.739H141.355V309.792H138.411ZM137.762 309.143H142.004V313.388H137.762V309.143Z" fill="#08104F"/>
<path d="M131.217 309.792V312.739H134.165V309.792H131.217ZM130.568 309.143H134.814V313.388H130.568V309.143Z" fill="#08104F"/>
<path d="M124.029 309.792V312.739H126.975V309.792H124.029ZM123.38 309.143H127.624V313.388H123.38V309.143Z" fill="#08104F"/>
<path d="M116.839 309.792V312.739H119.783V309.792H116.839ZM116.19 309.143H120.432V313.388H116.19V309.143Z" fill="#08104F"/>
<path d="M109.646 309.792V312.739H112.595V309.792H109.646ZM108.997 309.143H113.244V313.388H108.997V309.143Z" fill="#08104F"/>
<path d="M102.456 309.792V312.739H105.402V309.792H102.456ZM101.807 309.143H106.051V313.388H101.807V309.143Z" fill="#08104F"/>
<g opacity="0.4">
<path d="M100.413 94.7111V315.627H143.257L100.413 94.7111ZM99.7638 87.9556L144.044 316.275H99.7638V87.9556Z" fill="#08104F"/>
</g>
<path d="M100.413 88.6042V89.1681H143.395V88.6042H100.413ZM99.7638 87.9556H144.044V89.8171H99.7638V87.9556Z" fill="#08104F"/>
<path d="M98.4147 83.739V88.3733H145.397V83.739H98.4147ZM97.7657 83.0903H146.046V89.0222H97.7657V83.0903Z" fill="#08104F"/>
<path d="M2.80005 193.035V202.347H50.6118V193.035H2.80005ZM2.15107 192.387H51.2608V202.996H2.15107V192.387Z" fill="#08104F"/>
<path d="M2.80005 193.035V194.474H50.6118V193.035H2.80005ZM2.15107 192.387H51.2608V195.123H2.15107V192.387Z" fill="#08104F"/>
<g opacity="0.3">
<path d="M2.80003 193.035V202.347H23.4311V193.035H2.80003ZM2.15105 192.387H24.0801V202.996H2.15105V192.387Z" fill="#08104F"/>
</g>
<path d="M0.648983 201.933V315.627H52.7654V201.933H0.648983ZM0 201.284H53.4144V316.276H0V201.284Z" fill="#08104F"/>
<path d="M0.648983 201.933V203.829H52.7654V201.933H0.648983ZM0 201.284H53.4144V204.478H0V201.284Z" fill="#08104F"/>
<path d="M0.648983 202.39V204.286H52.7654V202.39H0.648983ZM0 201.741H53.4144V204.935H0V201.741Z" fill="#08104F"/>
<path d="M38.5138 207.585V218.439H49.7961V207.585H38.5138ZM37.8648 206.937H50.4453V219.087H37.8648V206.937Z" fill="#08104F"/>
<path d="M43.7851 206.937H44.522V212.657H50.4447V213.368H44.522V219.087H43.7851V213.368H37.8645V212.657H43.7851V206.937Z" fill="#08104F"/>
<path d="M21.0645 207.585V218.439H32.3493V207.585H21.0645ZM20.4156 206.937H32.9986V219.087H20.4156V206.937Z" fill="#08104F"/>
<path d="M26.3392 206.937H27.0756V212.657H32.9986V213.368H27.0756V219.087H26.3392V213.368H20.4156V212.657H26.3392V206.937Z" fill="#08104F"/>
<path d="M3.61718 207.585V218.439H14.9V207.585H3.61718ZM2.96819 206.937H15.5493V219.087H2.96819V206.937Z" fill="#08104F"/>
<path d="M8.89119 206.937H9.6282V212.657H15.5493V213.368H9.6282V219.087H8.89119V213.368H2.96819V212.657H8.89119V206.937Z" fill="#08104F"/>
<path d="M38.5138 223.327V234.179H49.7961V223.327H38.5138ZM37.8648 222.679H50.4453V234.827H37.8648V222.679Z" fill="#08104F"/>
<path d="M43.7851 222.679H44.522V228.397H50.4447V229.109H44.522V234.827H43.7851V229.109H37.8646V228.397H43.7851V222.679Z" fill="#08104F"/>
<path d="M21.0646 223.327V234.179H32.3493V223.327H21.0646ZM20.4156 222.679H32.9986V234.827H20.4156V222.679Z" fill="#08104F"/>
<path d="M26.3392 222.679H27.0756V228.397H32.9986V229.109H27.0756V234.827H26.3392V229.109H20.4156V228.397H26.3392V222.679Z" fill="#08104F"/>
<path d="M3.6172 223.327V234.179H14.9V223.327H3.6172ZM2.96822 222.679H15.5493V234.827H2.96822V222.679Z" fill="#08104F"/>
<path d="M8.89121 222.679H9.62822V228.397H15.5493V229.109H9.62822V234.827H8.89121V229.109H2.96822V228.397H8.89121V222.679Z" fill="#08104F"/>
<path d="M38.5138 239.067V249.92H49.7961V239.067H38.5138ZM37.8648 238.418H50.4453V250.568H37.8648V238.418Z" fill="#08104F"/>
<path d="M43.7851 238.418H44.522V244.138H50.4447V244.85H44.522V250.568H43.7851V244.85H37.8646V244.138H43.7851V238.418Z" fill="#08104F"/>
<path d="M21.0646 239.067V249.92H32.3493V239.067H21.0646ZM20.4156 238.418H32.9986V250.568H20.4156V238.418Z" fill="#08104F"/>
<path d="M26.3392 238.418H27.0756V244.138H32.9986V244.85H27.0756V250.568H26.3392V244.85H20.4156V244.138H26.3392V238.418Z" fill="#08104F"/>
<path d="M3.6172 239.067V249.92H14.9V239.067H3.6172ZM2.96822 238.418H15.5493V250.568H2.96822V238.418Z" fill="#08104F"/>
<path d="M8.89121 238.418H9.62822V244.138H15.5493V244.85H9.62822V250.568H8.89121V244.85H2.96822V244.138H8.89121V238.418Z" fill="#08104F"/>
<path d="M38.5138 254.808V265.661H49.7961V254.808H38.5138ZM37.8648 254.159H50.4453V266.31H37.8648V254.159Z" fill="#08104F"/>
<path d="M43.7851 254.159H44.522V259.879H50.4447V260.59H44.522V266.31H43.7851V260.59H37.8646V259.879H43.7851V254.159Z" fill="#08104F"/>
<path d="M21.0646 254.808V265.661H32.3493V254.808H21.0646ZM20.4156 254.159H32.9986V266.31H20.4156V254.159Z" fill="#08104F"/>
<path d="M26.3392 254.159H27.0756V259.879H32.9986V260.59H27.0756V266.31H26.3392V260.59H20.4156V259.879H26.3392V254.159Z" fill="#08104F"/>
<path d="M3.6172 254.808V265.661H14.9V254.808H3.6172ZM2.96822 254.159H15.5493V266.31H2.96822V254.159Z" fill="#08104F"/>
<path d="M8.89121 254.159H9.62822V259.879H15.5493V260.59H9.62822V266.31H8.89121V260.59H2.96822V259.879H8.89121V254.159Z" fill="#08104F"/>
<path d="M38.5138 270.55V281.401H49.7961V270.55H38.5138ZM37.8648 269.901H50.4453V282.049H37.8648V269.901Z" fill="#08104F"/>
<path d="M43.7851 269.901H44.522V275.619H50.4447V276.331H44.522V282.049H43.7851V276.331H37.8646V275.619H43.7851V269.901Z" fill="#08104F"/>
<path d="M21.0646 270.55V281.401H32.3493V270.55H21.0646ZM20.4156 269.901H32.9986V282.049H20.4156V269.901Z" fill="#08104F"/>
<path d="M26.3392 269.901H27.0756V275.619H32.9986V276.331H27.0756V282.049H26.3392V276.331H20.4156V275.619H26.3392V269.901Z" fill="#08104F"/>
<path d="M3.6172 270.55V281.401H14.9V270.55H3.6172ZM2.96822 269.901H15.5493V282.049H2.96822V269.901Z" fill="#08104F"/>
<path d="M8.89121 269.901H9.62822V275.619H15.5493V276.331H9.62822V282.049H8.89121V276.331H2.96822V275.619H8.89121V269.901Z" fill="#08104F"/>
<path d="M38.5138 286.289V297.142H49.7961V286.289H38.5138ZM37.8648 285.641H50.4453V297.79H37.8648V285.641Z" fill="#08104F"/>
<path d="M43.7851 285.641H44.522V291.359H50.4447V292.071H44.522V297.79H43.7851V292.071H37.8646V291.359H43.7851V285.641Z" fill="#08104F"/>
<path d="M21.0646 286.289V297.142H32.3493V286.289H21.0646ZM20.4156 285.641H32.9986V297.79H20.4156V285.641Z" fill="#08104F"/>
<path d="M26.3392 285.641H27.0756V291.359H32.9986V292.071H27.0756V297.79H26.3392V292.071H20.4156V291.359H26.3392V285.641Z" fill="#08104F"/>
<path d="M3.6172 286.289V297.142H14.9V286.289H3.6172ZM2.96822 285.641H15.5493V297.79H2.96822V285.641Z" fill="#08104F"/>
<path d="M8.89121 285.641H9.62822V291.359H15.5493V292.071H9.62822V297.79H8.89121V292.071H2.96822V291.359H8.89121V285.641Z" fill="#08104F"/>
<path d="M38.5138 302.03V312.883H49.7961V302.03H38.5138ZM37.8648 301.381H50.4453V313.532H37.8648V301.381Z" fill="#08104F"/>
<path d="M43.7851 301.381H44.522V307.1H50.4447V307.811H44.522V313.532H43.7851V307.811H37.8646V307.1H43.7851V301.381Z" fill="#08104F"/>
<path d="M21.0646 302.03V312.883H32.3493V302.03H21.0646ZM20.4156 301.381H32.9986V313.532H20.4156V301.381Z" fill="#08104F"/>
<path d="M26.3392 301.381H27.0756V307.1H32.9986V307.811H27.0756V313.532H26.3392V307.811H20.4156V307.1H26.3392V301.381Z" fill="#08104F"/>
<path d="M3.6172 302.03V312.883H14.9V302.03H3.6172ZM2.96822 301.381H15.5493V313.532H2.96822V301.381Z" fill="#08104F"/>
<path d="M8.89121 301.381H9.62822V307.1H15.5493V307.811H9.62822V313.532H8.89121V307.811H2.96822V307.1H8.89121V301.381Z" fill="#08104F"/>
<g opacity="0.3">
<path d="M0.64897 201.933V315.627H23.4311V201.933H0.64897ZM-1.33514e-05 201.284H24.0801V316.276H-1.33514e-05V201.284Z" fill="#08104F"/>
</g>
<path d="M160.006 42.113V58.7323H178.106V42.113H160.006ZM159.357 41.4644H178.755V59.3809H159.357V41.4644Z" fill="#08104F"/>
<path d="M160.006 42.113V44.4355H178.106V42.113H160.006ZM159.357 41.4644H178.755V45.0842H159.357V41.4644Z" fill="#08104F"/>
<path d="M160.287 22.1143H161.192V43.3127H160.287V22.1143Z" fill="#08104F"/>
<path d="M160.006 58.9763V109.15H190.397V58.9763H160.006ZM159.357 58.3276H191.046V109.799H159.357V58.3276Z" fill="#08104F"/>
<path d="M160.006 58.9763V61.2988H190.397V58.9763H160.006ZM159.357 58.3276H191.046V61.9478H159.357V58.3276Z" fill="#08104F"/>
<path d="M154.551 108.302V158.476H195.85V108.302H154.551ZM153.902 107.654H196.499V159.124H153.902V107.654Z" fill="#08104F"/>
<path d="M154.551 108.302V110.625H195.85V108.302H154.551ZM153.902 107.654H196.499V111.274H153.902V107.654Z" fill="#08104F"/>
<path d="M148.279 157.695V315.626H202.122V157.695H148.279ZM147.63 157.046H202.771V316.275H147.63V157.046Z" fill="#08104F"/>
<path d="M148.279 157.692V160.468H202.122V157.692H148.279ZM147.63 157.043H202.771V161.116H147.63V157.043Z" fill="#08104F"/>
<path d="M194.173 164.076V167.576H197.674V164.076H194.173ZM193.524 163.428H198.323V168.225H193.524V163.428Z" fill="#08104F"/>
<path d="M183.811 164.076V167.576H187.313V164.076H183.811ZM183.162 163.428H187.962V168.225H183.162V163.428Z" fill="#08104F"/>
<path d="M173.451 164.076V167.576H176.951V164.076H173.451ZM172.802 163.428H177.6V168.225H172.802V163.428Z" fill="#08104F"/>
<path d="M163.089 164.076V167.576H166.591V164.076H163.089ZM162.44 163.428H167.24V168.225H162.44V163.428Z" fill="#08104F"/>
<path d="M152.73 164.076V167.576H156.231V164.076H152.73ZM152.081 163.428H156.88V168.225H152.081V163.428Z" fill="#08104F"/>
<path d="M194.173 171.887V175.387H197.674V171.887H194.173ZM193.524 171.239H198.323V176.035H193.524V171.239Z" fill="#08104F"/>
<path d="M183.811 171.887V175.387H187.313V171.887H183.811ZM183.162 171.239H187.962V176.035H183.162V171.239Z" fill="#08104F"/>
<path d="M173.451 171.887V175.387H176.951V171.887H173.451ZM172.802 171.239H177.6V176.035H172.802V171.239Z" fill="#08104F"/>
<path d="M163.089 171.887V175.387H166.591V171.887H163.089ZM162.44 171.239H167.24V176.035H162.44V171.239Z" fill="#08104F"/>
<path d="M152.73 171.887V175.387H156.231V171.887H152.73ZM152.081 171.239H156.88V176.035H152.081V171.239Z" fill="#08104F"/>
<path d="M194.173 179.698V183.198H197.674V179.698H194.173ZM193.524 179.05H198.323V183.847H193.524V179.05Z" fill="#08104F"/>
<path d="M183.811 179.698V183.198H187.313V179.698H183.811ZM183.162 179.05H187.962V183.847H183.162V179.05Z" fill="#08104F"/>
<path d="M173.451 179.698V183.198H176.951V179.698H173.451ZM172.802 179.05H177.6V183.847H172.802V179.05Z" fill="#08104F"/>
<path d="M163.089 179.698V183.198H166.591V179.698H163.089ZM162.44 179.05H167.24V183.847H162.44V179.05Z" fill="#08104F"/>
<path d="M152.73 179.698V183.198H156.231V179.698H152.73ZM152.081 179.05H156.88V183.847H152.081V179.05Z" fill="#08104F"/>
<path d="M194.173 187.513V191.011H197.674V187.513H194.173ZM193.524 186.864H198.323V191.66H193.524V186.864Z" fill="#08104F"/>
<path d="M183.811 187.513V191.011H187.313V187.513H183.811ZM183.162 186.864H187.962V191.66H183.162V186.864Z" fill="#08104F"/>
<path d="M173.451 187.513V191.011H176.951V187.513H173.451ZM172.802 186.864H177.6V191.66H172.802V186.864Z" fill="#08104F"/>
<path d="M163.089 187.513V191.011H166.591V187.513H163.089ZM162.44 186.864H167.24V191.66H162.44V186.864Z" fill="#08104F"/>
<path d="M152.73 187.513V191.011H156.231V187.513H152.73ZM152.081 186.864H156.88V191.66H152.081V186.864Z" fill="#08104F"/>
<path d="M194.173 195.324V198.824H197.674V195.324H194.173ZM193.524 194.675H198.323V199.472H193.524V194.675Z" fill="#08104F"/>
<path d="M183.811 195.324V198.824H187.313V195.324H183.811ZM183.162 194.675H187.962V199.472H183.162V194.675Z" fill="#08104F"/>
<path d="M173.451 195.324V198.824H176.951V195.324H173.451ZM172.802 194.675H177.6V199.472H172.802V194.675Z" fill="#08104F"/>
<path d="M163.089 195.324V198.824H166.591V195.324H163.089ZM162.44 194.675H167.24V199.472H162.44V194.675Z" fill="#08104F"/>
<path d="M152.73 195.324V198.824H156.231V195.324H152.73ZM152.081 194.675H156.88V199.472H152.081V194.675Z" fill="#08104F"/>
<path d="M194.173 203.135V206.635H197.674V203.135H194.173ZM193.524 202.487H198.323V207.284H193.524V202.487Z" fill="#08104F"/>
<path d="M183.811 203.135V206.635H187.313V203.135H183.811ZM183.162 202.487H187.962V207.284H183.162V202.487Z" fill="#08104F"/>
<path d="M173.451 203.135V206.635H176.951V203.135H173.451ZM172.802 202.487H177.6V207.284H172.802V202.487Z" fill="#08104F"/>
<path d="M163.089 203.135V206.635H166.591V203.135H163.089ZM162.44 202.487H167.24V207.284H162.44V202.487Z" fill="#08104F"/>
<path d="M152.73 203.135V206.635H156.231V203.135H152.73ZM152.081 202.487H156.88V207.284H152.081V202.487Z" fill="#08104F"/>
<path d="M194.173 210.949V214.449H197.674V210.949H194.173ZM193.524 210.301H198.323V215.097H193.524V210.301Z" fill="#08104F"/>
<path d="M183.811 210.949V214.449H187.313V210.949H183.811ZM183.162 210.301H187.962V215.097H183.162V210.301Z" fill="#08104F"/>
<path d="M173.451 210.949V214.449H176.951V210.949H173.451ZM172.802 210.301H177.6V215.097H172.802V210.301Z" fill="#08104F"/>
<path d="M163.089 210.949V214.449H166.591V210.949H163.089ZM162.44 210.301H167.24V215.097H162.44V210.301Z" fill="#08104F"/>
<path d="M152.73 210.949V214.449H156.231V210.949H152.73ZM152.081 210.301H156.88V215.097H152.081V210.301Z" fill="#08104F"/>
<path d="M194.173 218.761V222.261H197.674V218.761H194.173ZM193.524 218.113H198.323V222.91H193.524V218.113Z" fill="#08104F"/>
<path d="M183.811 218.761V222.261H187.313V218.761H183.811ZM183.162 218.113H187.962V222.91H183.162V218.113Z" fill="#08104F"/>
<path d="M173.451 218.761V222.261H176.951V218.761H173.451ZM172.802 218.113H177.6V222.91H172.802V218.113Z" fill="#08104F"/>
<path d="M163.089 218.761V222.261H166.591V218.761H163.089ZM162.44 218.113H167.24V222.91H162.44V218.113Z" fill="#08104F"/>
<path d="M152.73 218.761V222.261H156.231V218.761H152.73ZM152.081 218.113H156.88V222.91H152.081V218.113Z" fill="#08104F"/>
<path d="M194.173 226.573V230.072H197.674V226.573H194.173ZM193.524 225.924H198.323V230.721H193.524V225.924Z" fill="#08104F"/>
<path d="M183.811 226.573V230.072H187.313V226.573H183.811ZM183.162 225.924H187.962V230.721H183.162V225.924Z" fill="#08104F"/>
<path d="M173.451 226.573V230.072H176.951V226.573H173.451ZM172.802 225.924H177.6V230.721H172.802V225.924Z" fill="#08104F"/>
<path d="M163.089 226.573V230.072H166.591V226.573H163.089ZM162.44 225.924H167.24V230.721H162.44V225.924Z" fill="#08104F"/>
<path d="M152.73 226.573V230.072H156.231V226.573H152.73ZM152.081 225.924H156.88V230.721H152.081V225.924Z" fill="#08104F"/>
<path d="M194.173 234.384V237.884H197.674V234.384H194.173ZM193.524 233.736H198.323V238.533H193.524V233.736Z" fill="#08104F"/>
<path d="M183.811 234.384V237.884H187.313V234.384H183.811ZM183.162 233.736H187.962V238.533H183.162V233.736Z" fill="#08104F"/>
<path d="M173.451 234.384V237.884H176.951V234.384H173.451ZM172.802 233.736H177.6V238.533H172.802V233.736Z" fill="#08104F"/>
<path d="M163.089 234.384V237.884H166.591V234.384H163.089ZM162.44 233.736H167.24V238.533H162.44V233.736Z" fill="#08104F"/>
<path d="M152.73 234.384V237.884H156.231V234.384H152.73ZM152.081 233.736H156.88V238.533H152.081V233.736Z" fill="#08104F"/>
<path d="M194.173 242.196V245.695H197.674V242.196H194.173ZM193.524 241.547H198.323V246.344H193.524V241.547Z" fill="#08104F"/>
<path d="M183.811 242.196V245.695H187.313V242.196H183.811ZM183.162 241.547H187.962V246.344H183.162V241.547Z" fill="#08104F"/>
<path d="M173.451 242.196V245.695H176.951V242.196H173.451ZM172.802 241.547H177.6V246.344H172.802V241.547Z" fill="#08104F"/>
<path d="M163.089 242.196V245.695H166.591V242.196H163.089ZM162.44 241.547H167.24V246.344H162.44V241.547Z" fill="#08104F"/>
<path d="M152.73 242.196V245.695H156.231V242.196H152.73ZM152.081 241.547H156.88V246.344H152.081V241.547Z" fill="#08104F"/>
<path d="M194.173 250.01V253.508H197.674V250.01H194.173ZM193.524 249.361H198.323V254.156H193.524V249.361Z" fill="#08104F"/>
<path d="M183.811 250.01V253.508H187.313V250.01H183.811ZM183.162 249.361H187.962V254.156H183.162V249.361Z" fill="#08104F"/>
<path d="M173.451 250.01V253.508H176.951V250.01H173.451ZM172.802 249.361H177.6V254.156H172.802V249.361Z" fill="#08104F"/>
<path d="M163.089 250.01V253.508H166.591V250.01H163.089ZM162.44 249.361H167.24V254.156H162.44V249.361Z" fill="#08104F"/>
<path d="M152.73 250.01V253.508H156.231V250.01H152.73ZM152.081 249.361H156.88V254.156H152.081V249.361Z" fill="#08104F"/>
<path d="M194.173 257.822V261.322H197.674V257.822H194.173ZM193.524 257.173H198.323V261.97H193.524V257.173Z" fill="#08104F"/>
<path d="M183.811 257.822V261.322H187.313V257.822H183.811ZM183.162 257.173H187.962V261.97H183.162V257.173Z" fill="#08104F"/>
<path d="M173.451 257.822V261.322H176.951V257.822H173.451ZM172.802 257.173H177.6V261.97H172.802V257.173Z" fill="#08104F"/>
<path d="M163.089 257.822V261.322H166.591V257.822H163.089ZM162.44 257.173H167.24V261.97H162.44V257.173Z" fill="#08104F"/>
<path d="M152.73 257.822V261.322H156.231V257.822H152.73ZM152.081 257.173H156.88V261.97H152.081V257.173Z" fill="#08104F"/>
<path d="M194.173 265.633V269.133H197.674V265.633H194.173ZM193.524 264.984H198.323V269.781H193.524V264.984Z" fill="#08104F"/>
<path d="M183.811 265.633V269.133H187.313V265.633H183.811ZM183.162 264.984H187.962V269.781H183.162V264.984Z" fill="#08104F"/>
<path d="M173.451 265.633V269.133H176.951V265.633H173.451ZM172.802 264.984H177.6V269.781H172.802V264.984Z" fill="#08104F"/>
<path d="M163.089 265.633V269.133H166.591V265.633H163.089ZM162.44 264.984H167.24V269.781H162.44V264.984Z" fill="#08104F"/>
<path d="M152.73 265.633V269.133H156.231V265.633H152.73ZM152.081 264.984H156.88V269.781H152.081V264.984Z" fill="#08104F"/>
<path d="M194.173 273.445V276.944H197.674V273.445H194.173ZM193.524 272.796H198.323V277.593H193.524V272.796Z" fill="#08104F"/>
<path d="M183.811 273.445V276.944H187.313V273.445H183.811ZM183.162 272.796H187.962V277.593H183.162V272.796Z" fill="#08104F"/>
<path d="M173.451 273.445V276.944H176.951V273.445H173.451ZM172.802 272.796H177.6V277.593H172.802V272.796Z" fill="#08104F"/>
<path d="M163.089 273.445V276.944H166.591V273.445H163.089ZM162.44 272.796H167.24V277.593H162.44V272.796Z" fill="#08104F"/>
<path d="M152.73 273.445V276.944H156.231V273.445H152.73ZM152.081 272.796H156.88V277.593H152.081V272.796Z" fill="#08104F"/>
<path d="M194.173 281.259V284.757H197.674V281.259H194.173ZM193.524 280.61H198.323V285.406H193.524V280.61Z" fill="#08104F"/>
<path d="M183.811 281.259V284.757H187.313V281.259H183.811ZM183.162 280.61H187.962V285.406H183.162V280.61Z" fill="#08104F"/>
<path d="M173.451 281.259V284.757H176.951V281.259H173.451ZM172.802 280.61H177.6V285.406H172.802V280.61Z" fill="#08104F"/>
<path d="M163.089 281.259V284.757H166.591V281.259H163.089ZM162.44 280.61H167.24V285.406H162.44V280.61Z" fill="#08104F"/>
<path d="M152.73 281.259V284.757H156.231V281.259H152.73ZM152.081 280.61H156.88V285.406H152.081V280.61Z" fill="#08104F"/>
<path d="M190.641 114.252V116.927H193.315V114.252H190.641ZM189.992 113.604H193.964V117.576H189.992V113.604Z" fill="#08104F"/>
<path d="M182.252 114.252V116.927H184.927V114.252H182.252ZM181.603 113.604H185.576V117.576H181.603V113.604Z" fill="#08104F"/>
<path d="M173.863 114.252V116.927H176.538V114.252H173.863ZM173.214 113.604H177.187V117.576H173.214V113.604Z" fill="#08104F"/>
<path d="M165.474 114.252V116.927H168.15V114.252H165.474ZM164.825 113.604H168.799V117.576H164.825V113.604Z" fill="#08104F"/>
<path d="M157.086 114.252V116.927H159.764V114.252H157.086ZM156.437 113.604H160.413V117.576H156.437V113.604Z" fill="#08104F"/>
<path d="M187.403 64.1369V65.2571H188.522V64.1369H187.403ZM186.754 63.4883H189.171V65.9057H186.754V63.4883Z" fill="#08104F"/>
<path d="M182.298 64.1369V65.2571H183.419V64.1369H182.298ZM181.649 63.4883H184.068V65.9057H181.649V63.4883Z" fill="#08104F"/>
<path d="M177.194 64.1369V65.2571H178.312V64.1369H177.194ZM176.545 63.4883H178.962V65.9057H176.545V63.4883Z" fill="#08104F"/>
<path d="M166.983 64.1369V65.2571H168.103V64.1369H166.983ZM166.334 63.4883H168.752V65.9057H166.334V63.4883Z" fill="#08104F"/>
<path d="M172.089 64.1369V65.2571H173.211V64.1369H172.089ZM171.44 63.4883H173.86V65.9057H171.44V63.4883Z" fill="#08104F"/>
<path d="M161.879 64.1369V65.2571H163V64.1369H161.879ZM161.23 63.4883H163.649V65.9057H161.23V63.4883Z" fill="#08104F"/>
<path d="M176.113 46.8777V47.9054H177.14V46.8777H176.113ZM175.463 46.229H177.789V48.554H175.463V46.229Z" fill="#08104F"/>
<path d="M172.347 46.8777V47.9054H173.376V46.8777H172.347ZM171.698 46.229H174.025V48.554H171.698V46.229Z" fill="#08104F"/>
<path d="M168.583 46.8777V47.9054H169.614V46.8777H168.583ZM167.934 46.229H170.263V48.554H167.934V46.229Z" fill="#08104F"/>
<path d="M164.823 46.8777V47.9054H165.851V46.8777H164.823ZM164.174 46.229H166.499V48.554H164.174V46.229Z" fill="#08104F"/>
<path d="M161.06 46.8777V47.9054H162.087V46.8777H161.06ZM160.411 46.229H162.736V48.554H160.411V46.229Z" fill="#08104F"/>
<path d="M176.113 51.2151V52.2453H177.14V51.2151H176.113ZM175.463 50.5664H177.789V52.894H175.463V50.5664Z" fill="#08104F"/>
<path d="M172.347 51.2151V52.2453H173.376V51.2151H172.347ZM171.698 50.5664H174.025V52.894H171.698V50.5664Z" fill="#08104F"/>
<path d="M168.583 51.2151V52.2453H169.614V51.2151H168.583ZM167.934 50.5664H170.263V52.894H167.934V50.5664Z" fill="#08104F"/>
<path d="M164.823 51.2151V52.2453H165.851V51.2151H164.823ZM164.174 50.5664H166.499V52.894H164.174V50.5664Z" fill="#08104F"/>
<path d="M161.06 51.2151V52.2453H162.087V51.2151H161.06ZM160.411 50.5664H162.736V52.894H160.411V50.5664Z" fill="#08104F"/>
<path d="M176.113 55.5534V56.5809H177.14V55.5534H176.113ZM175.463 54.9048H177.789V57.2298H175.463V54.9048Z" fill="#08104F"/>
<path d="M172.347 55.5534V56.5809H173.376V55.5534H172.347ZM171.698 54.9048H174.025V57.2298H171.698V54.9048Z" fill="#08104F"/>
<path d="M168.583 55.5534V56.5809H169.614V55.5534H168.583ZM167.934 54.9048H170.263V57.2298H167.934V54.9048Z" fill="#08104F"/>
<path d="M164.823 55.5534V56.5809H165.851V55.5534H164.823ZM164.174 54.9048H166.499V57.2298H164.174V54.9048Z" fill="#08104F"/>
<path d="M161.06 55.5534V56.5809H162.087V55.5534H161.06ZM160.411 54.9048H162.736V57.2298H160.411V54.9048Z" fill="#08104F"/>
<path d="M187.403 68.2916V69.4129H188.522V68.2916H187.403ZM186.754 67.6426H189.171V70.0616H186.754V67.6426Z" fill="#08104F"/>
<path d="M182.298 68.2916V69.4129H183.419V68.2916H182.298ZM181.649 67.6426H184.068V70.0616H181.649V67.6426Z" fill="#08104F"/>
<path d="M177.194 68.2916V69.4129H178.312V68.2916H177.194ZM176.545 67.6426H178.962V70.0616H176.545V67.6426Z" fill="#08104F"/>
<path d="M166.983 68.2916V69.4129H168.103V68.2916H166.983ZM166.334 67.6426H168.752V70.0616H166.334V67.6426Z" fill="#08104F"/>
<path d="M172.089 68.2916V69.4129H173.211V68.2916H172.089ZM171.44 67.6426H173.86V70.0616H171.44V67.6426Z" fill="#08104F"/>
<path d="M161.879 68.2916V69.4129H163V68.2916H161.879ZM161.23 67.6426H163.649V70.0616H161.23V67.6426Z" fill="#08104F"/>
<path d="M187.403 72.4489V73.57H188.522V72.4489H187.403ZM186.754 71.8003H189.171V74.219H186.754V71.8003Z" fill="#08104F"/>
<path d="M182.298 72.4489V73.57H183.419V72.4489H182.298ZM181.649 71.8003H184.068V74.219H181.649V71.8003Z" fill="#08104F"/>
<path d="M177.194 72.4489V73.57H178.312V72.4489H177.194ZM176.545 71.8003H178.962V74.219H176.545V71.8003Z" fill="#08104F"/>
<path d="M166.983 72.4489V73.57H168.103V72.4489H166.983ZM166.334 71.8003H168.752V74.219H166.334V71.8003Z" fill="#08104F"/>
<path d="M172.089 72.4489V73.57H173.211V72.4489H172.089ZM171.44 71.8003H173.86V74.219H171.44V71.8003Z" fill="#08104F"/>
<path d="M161.879 72.4489V73.57H163V72.4489H161.879ZM161.23 71.8003H163.649V74.219H161.23V71.8003Z" fill="#08104F"/>
<path d="M187.403 76.6042V77.7269H188.522V76.6042H187.403ZM186.754 75.9556H189.171V78.3755H186.754V75.9556Z" fill="#08104F"/>
<path d="M182.298 76.6042V77.7269H183.419V76.6042H182.298ZM181.649 75.9556H184.068V78.3755H181.649V75.9556Z" fill="#08104F"/>
<path d="M177.194 76.6042V77.7269H178.312V76.6042H177.194ZM176.545 75.9556H178.962V78.3755H176.545V75.9556Z" fill="#08104F"/>
<path d="M166.983 76.6042V77.7269H168.103V76.6042H166.983ZM166.334 75.9556H168.752V78.3755H166.334V75.9556Z" fill="#08104F"/>
<path d="M172.089 76.6042V77.7269H173.211V76.6042H172.089ZM171.44 75.9556H173.86V78.3755H171.44V75.9556Z" fill="#08104F"/>
<path d="M161.879 76.6042V77.7269H163V76.6042H161.879ZM161.23 75.9556H163.649V78.3755H161.23V75.9556Z" fill="#08104F"/>
<path d="M187.403 80.7603V81.8817H188.522V80.7603H187.403ZM186.754 80.1113H189.171V82.5303H186.754V80.1113Z" fill="#08104F"/>
<path d="M182.298 80.7603V81.8817H183.419V80.7603H182.298ZM181.649 80.1113H184.068V82.5303H181.649V80.1113Z" fill="#08104F"/>
<path d="M177.194 80.7603V81.8817H178.312V80.7603H177.194ZM176.545 80.1113H178.962V82.5303H176.545V80.1113Z" fill="#08104F"/>
<path d="M166.983 80.7603V81.8817H168.103V80.7603H166.983ZM166.334 80.1113H168.752V82.5303H166.334V80.1113Z" fill="#08104F"/>
<path d="M172.089 80.7603V81.8817H173.211V80.7603H172.089ZM171.44 80.1113H173.86V82.5303H171.44V80.1113Z" fill="#08104F"/>
<path d="M161.879 80.7603V81.8817H163V80.7603H161.879ZM161.23 80.1113H163.649V82.5303H161.23V80.1113Z" fill="#08104F"/>
<path d="M187.403 84.9162V86.036H188.522V84.9162H187.403ZM186.754 84.2676H189.171V86.6847H186.754V84.2676Z" fill="#08104F"/>
<path d="M182.298 84.9162V86.036H183.419V84.9162H182.298ZM181.649 84.2676H184.068V86.6847H181.649V84.2676Z" fill="#08104F"/>
<path d="M177.194 84.9162V86.036H178.312V84.9162H177.194ZM176.545 84.2676H178.962V86.6847H176.545V84.2676Z" fill="#08104F"/>
<path d="M166.983 84.9162V86.036H168.103V84.9162H166.983ZM166.334 84.2676H168.752V86.6847H166.334V84.2676Z" fill="#08104F"/>
<path d="M172.089 84.9162V86.036H173.211V84.9162H172.089ZM171.44 84.2676H173.86V86.6847H171.44V84.2676Z" fill="#08104F"/>
<path d="M161.879 84.9162V86.036H163V84.9162H161.879ZM161.23 84.2676H163.649V86.6847H161.23V84.2676Z" fill="#08104F"/>
<path d="M187.403 89.073V90.1931H188.522V89.073H187.403ZM186.754 88.4243H189.171V90.8421H186.754V88.4243Z" fill="#08104F"/>
<path d="M182.298 89.073V90.1931H183.419V89.073H182.298ZM181.649 88.4243H184.068V90.8421H181.649V88.4243Z" fill="#08104F"/>
<path d="M177.194 89.073V90.1931H178.312V89.073H177.194ZM176.545 88.4243H178.962V90.8421H176.545V88.4243Z" fill="#08104F"/>
<path d="M166.983 89.073V90.1931H168.103V89.073H166.983ZM166.334 88.4243H168.752V90.8421H166.334V88.4243Z" fill="#08104F"/>
<path d="M172.089 89.073V90.1931H173.211V89.073H172.089ZM171.44 88.4243H173.86V90.8421H171.44V88.4243Z" fill="#08104F"/>
<path d="M161.879 89.073V90.1931H163V89.073H161.879ZM161.23 88.4243H163.649V90.8421H161.23V88.4243Z" fill="#08104F"/>
<path d="M187.403 93.2273V94.3487H188.522V93.2273H187.403ZM186.754 92.5786H189.171V94.9973H186.754V92.5786Z" fill="#08104F"/>
<path d="M182.298 93.2273V94.3487H183.419V93.2273H182.298ZM181.649 92.5786H184.068V94.9973H181.649V92.5786Z" fill="#08104F"/>
<path d="M177.194 93.2273V94.3487H178.312V93.2273H177.194ZM176.545 92.5786H178.962V94.9973H176.545V92.5786Z" fill="#08104F"/>
<path d="M166.983 93.2273V94.3487H168.103V93.2273H166.983ZM166.334 92.5786H168.752V94.9973H166.334V92.5786Z" fill="#08104F"/>
<path d="M172.089 93.2273V94.3487H173.211V93.2273H172.089ZM171.44 92.5786H173.86V94.9973H171.44V92.5786Z" fill="#08104F"/>
<path d="M161.879 93.2273V94.3487H163V93.2273H161.879ZM161.23 92.5786H163.649V94.9973H161.23V92.5786Z" fill="#08104F"/>
<path d="M187.403 97.385V98.5061H188.522V97.385H187.403ZM186.754 96.7363H189.171V99.155H186.754V96.7363Z" fill="#08104F"/>
<path d="M182.298 97.385V98.5061H183.419V97.385H182.298ZM181.649 96.7363H184.068V99.155H181.649V96.7363Z" fill="#08104F"/>
<path d="M177.194 97.385V98.5061H178.312V97.385H177.194ZM176.545 96.7363H178.962V99.155H176.545V96.7363Z" fill="#08104F"/>
<path d="M166.983 97.385V98.5061H168.103V97.385H166.983ZM166.334 96.7363H168.752V99.155H166.334V96.7363Z" fill="#08104F"/>
<path d="M172.089 97.385V98.5061H173.211V97.385H172.089ZM171.44 96.7363H173.86V99.155H171.44V96.7363Z" fill="#08104F"/>
<path d="M161.879 97.385V98.5061H163V97.385H161.879ZM161.23 96.7363H163.649V99.155H161.23V96.7363Z" fill="#08104F"/>
<path d="M187.403 101.542V102.661H188.522V101.542H187.403ZM186.754 100.893H189.171V103.309H186.754V100.893Z" fill="#08104F"/>
<path d="M182.298 101.542V102.661H183.419V101.542H182.298ZM181.649 100.893H184.068V103.309H181.649V100.893Z" fill="#08104F"/>
<path d="M177.194 101.542V102.661H178.312V101.542H177.194ZM176.545 100.893H178.962V103.309H176.545V100.893Z" fill="#08104F"/>
<path d="M166.983 101.542V102.661H168.103V101.542H166.983ZM166.334 100.893H168.752V103.309H166.334V100.893Z" fill="#08104F"/>
<path d="M172.089 101.542V102.661H173.211V101.542H172.089ZM171.44 100.893H173.86V103.309H171.44V100.893Z" fill="#08104F"/>
<path d="M161.879 101.542V102.661H163V101.542H161.879ZM161.23 100.893H163.649V103.309H161.23V100.893Z" fill="#08104F"/>
<path d="M190.641 121.557V124.232H193.315V121.557H190.641ZM189.992 120.908H193.964V124.881H189.992V120.908Z" fill="#08104F"/>
<path d="M182.252 121.557V124.232H184.927V121.557H182.252ZM181.603 120.908H185.576V124.881H181.603V120.908Z" fill="#08104F"/>
<path d="M173.863 121.557V124.232H176.538V121.557H173.863ZM173.214 120.908H177.187V124.881H173.214V120.908Z" fill="#08104F"/>
<path d="M165.474 121.557V124.232H168.15V121.557H165.474ZM164.825 120.908H168.799V124.881H164.825V120.908Z" fill="#08104F"/>
<path d="M157.086 121.557V124.232H159.764V121.557H157.086ZM156.437 120.908H160.413V124.881H156.437V120.908Z" fill="#08104F"/>
<path d="M190.641 128.858V131.534H193.315V128.858H190.641ZM189.992 128.209H193.964V132.182H189.992V128.209Z" fill="#08104F"/>
<path d="M182.252 128.858V131.534H184.927V128.858H182.252ZM181.603 128.209H185.576V132.182H181.603V128.209Z" fill="#08104F"/>
<path d="M173.863 128.858V131.534H176.538V128.858H173.863ZM173.214 128.209H177.187V132.182H173.214V128.209Z" fill="#08104F"/>
<path d="M165.474 128.858V131.534H168.15V128.858H165.474ZM164.825 128.209H168.799V132.182H164.825V128.209Z" fill="#08104F"/>
<path d="M157.086 128.858V131.534H159.764V128.858H157.086ZM156.437 128.209H160.413V132.182H156.437V128.209Z" fill="#08104F"/>
<path d="M190.641 136.164V138.84H193.315V136.164H190.641ZM189.992 135.515H193.964V139.488H189.992V135.515Z" fill="#08104F"/>
<path d="M182.252 136.164V138.84H184.927V136.164H182.252ZM181.603 135.515H185.576V139.488H181.603V135.515Z" fill="#08104F"/>
<path d="M173.863 136.164V138.84H176.538V136.164H173.863ZM173.214 135.515H177.187V139.488H173.214V135.515Z" fill="#08104F"/>
<path d="M165.474 136.164V138.84H168.15V136.164H165.474ZM164.825 135.515H168.799V139.488H164.825V135.515Z" fill="#08104F"/>
<path d="M157.086 136.164V138.84H159.764V136.164H157.086ZM156.437 135.515H160.413V139.488H156.437V135.515Z" fill="#08104F"/>
<path d="M190.641 143.467V146.142H193.315V143.467H190.641ZM189.992 142.818H193.964V146.79H189.992V142.818Z" fill="#08104F"/>
<path d="M182.252 143.467V146.142H184.927V143.467H182.252ZM181.603 142.818H185.576V146.79H181.603V142.818Z" fill="#08104F"/>
<path d="M173.863 143.467V146.142H176.538V143.467H173.863ZM173.214 142.818H177.187V146.79H173.214V142.818Z" fill="#08104F"/>
<path d="M165.474 143.467V146.142H168.15V143.467H165.474ZM164.825 142.818H168.799V146.79H164.825V142.818Z" fill="#08104F"/>
<path d="M157.086 143.467V146.142H159.764V143.467H157.086ZM156.437 142.818H160.413V146.79H156.437V142.818Z" fill="#08104F"/>
<path d="M190.641 150.772V153.446H193.315V150.772H190.641ZM189.992 150.123H193.964V154.095H189.992V150.123Z" fill="#08104F"/>
<path d="M182.252 150.772V153.446H184.927V150.772H182.252ZM181.603 150.123H185.576V154.095H181.603V150.123Z" fill="#08104F"/>
<path d="M173.863 150.772V153.446H176.538V150.772H173.863ZM173.214 150.123H177.187V154.095H173.214V150.123Z" fill="#08104F"/>
<path d="M165.474 150.772V153.446H168.15V150.772H165.474ZM164.825 150.123H168.799V154.095H164.825V150.123Z" fill="#08104F"/>
<path d="M157.086 150.772V153.446H159.764V150.772H157.086ZM156.437 150.123H160.413V154.095H156.437V150.123Z" fill="#08104F"/>
<path d="M167.944 296.648V315.627H182.459V296.648H167.944ZM167.295 296H183.108V316.275H167.295V296Z" fill="#08104F"/>
</svg>
